<svg xmlns="http://www.w3.org/2000/svg" width="612" height="810" viewBox="0 0 612 810"><rect width="100%" height="100%" fill="#000000"/><text x="18" y="23" fill="#d0d0d0" font-family="monospace" font-size="14">GLYPH ENGINE 2.3 — VARIED TRACKS</text><text x="18" y="42" fill="#777777" font-family="monospace" font-size="10">80 deterministic realizations from different chromatic behaviors</text><rect x="18" y="72" width="576" height="720" fill="#111111"/><rect x="18" y="72" width="72" height="72" fill="none" stroke="#202020"/><rect x="49.5" y="94.5" width="9" height="9" fill="#29cff8"/><rect x="40.5" y="103.5" width="9" height="9" fill="#29cff8"/><rect x="49.5" y="103.5" width="9" height="9" fill="rgb(81,177,248)"/><rect x="58.5" y="103.5" width="9" height="9" fill="rgb(174,76,224)"/><rect x="49.5" y="112.5" width="9" height="9" fill="rgb(121,147,247)"/><rect x="58.5" y="112.5" width="9" height="9" fill="rgb(161,116,247)"/><rect x="90" y="72" width="72" height="72" fill="none" stroke="#202020"/><rect x="121.5" y="94.5" width="9" height="9" fill="#71c10c"/><rect x="121.5" y="103.5" width="9" height="9" fill="rgb(113,193,12)"/><rect x="121.5" y="112.5" width="9" height="9" fill="#71c10c"/><rect x="162" y="72" width="72" height="72" fill="none" stroke="#202020"/><rect x="184.5" y="94.5" width="9" height="9" fill="#74dcab"/><rect x="193.5" y="94.5" width="9" height="9" fill="rgb(89,161,114)"/><rect x="202.5" y="94.5" width="9" height="9" fill="rgb(97,128,66)"/><rect x="193.5" y="103.5" width="9" height="9" fill="#385b89"/><rect x="202.5" y="103.5" width="9" height="9" fill="rgb(145,123,34)"/><rect x="211.5" y="103.5" width="9" height="9" fill="rgb(114,60,23)"/><rect x="202.5" y="112.5" width="9" height="9" fill="rgb(63,144,75)"/><rect x="211.5" y="112.5" width="9" height="9" fill="rgb(95,105,215)"/><rect x="234" y="72" width="72" height="72" fill="none" stroke="#202020"/><rect x="256.5" y="85.5" width="9" height="9" fill="#8454ec"/><rect x="274.5" y="94.5" width="9" height="9" fill="rgb(224,34,43)"/><rect x="274.5" y="103.5" width="9" height="9" fill="rgb(208,47,66)"/><rect x="265.5" y="112.5" width="9" height="9" fill="rgb(163,184,101)"/><rect x="274.5" y="112.5" width="9" height="9" fill="rgb(192,60,89)"/><rect x="283.5" y="112.5" width="9" height="9" fill="rgb(162,149,103)"/><rect x="265.5" y="121.5" width="9" height="9" fill="#8454ec"/><rect x="274.5" y="121.5" width="9" height="9" fill="rgb(176,72,112)"/><rect x="283.5" y="121.5" width="9" height="9" fill="rgb(160,85,135)"/><rect x="306" y="72" width="72" height="72" fill="none" stroke="#202020"/><rect x="337.5" y="94.5" width="9" height="9" fill="#ef0b4b"/><rect x="337.5" y="103.5" width="9" height="9" fill="rgb(139,100,183)"/><rect x="337.5" y="112.5" width="9" height="9" fill="rgb(147,106,179)"/><rect x="346.5" y="121.5" width="9" height="9" fill="#dc3d6a"/><rect x="378" y="72" width="72" height="72" fill="none" stroke="#202020"/><rect x="400.5" y="103.5" width="9" height="9" fill="#b9ce7f"/><rect x="409.5" y="103.5" width="9" height="9" fill="rgb(185,206,127)"/><rect x="418.5" y="103.5" width="9" height="9" fill="#b9ce7f"/><rect x="450" y="72" width="72" height="72" fill="none" stroke="#202020"/><rect x="472.5" y="103.5" width="9" height="9" fill="#09ce15"/><rect x="481.5" y="103.5" width="9" height="9" fill="rgb(187,79,142)"/><rect x="490.5" y="103.5" width="9" height="9" fill="rgb(43,35,205)"/><rect x="481.5" y="112.5" width="9" height="9" fill="#e27b1f"/><rect x="522" y="72" width="72" height="72" fill="none" stroke="#202020"/><rect x="571.5" y="103.5" width="9" height="9" fill="#d2b517"/><rect x="535.5" y="112.5" width="9" height="9" fill="#df5843"/><rect x="544.5" y="112.5" width="9" height="9" fill="rgb(182,145,97)"/><rect x="553.5" y="112.5" width="9" height="9" fill="rgb(184,159,84)"/><rect x="562.5" y="112.5" width="9" height="9" fill="rgb(193,167,63)"/><rect x="571.5" y="112.5" width="9" height="9" fill="rgb(201,174,43)"/><rect x="18" y="144" width="72" height="72" fill="none" stroke="#202020"/><rect x="49.5" y="166.5" width="9" height="9" fill="#cfae3b"/><rect x="49.5" y="175.5" width="9" height="9" fill="rgb(195,128,66)"/><rect x="58.5" y="184.5" width="9" height="9" fill="rgb(184,82,73)"/><rect x="58.5" y="193.5" width="9" height="9" fill="#c04126"/><rect x="90" y="144" width="72" height="72" fill="none" stroke="#202020"/><rect x="121.5" y="175.5" width="9" height="9" fill="#13d9f3"/><rect x="121.5" y="184.5" width="9" height="9" fill="#13d9f3"/><rect x="162" y="144" width="72" height="72" fill="none" stroke="#202020"/><rect x="184.5" y="175.5" width="9" height="9" fill="#eee52f"/><rect x="202.5" y="175.5" width="9" height="9" fill="#eee52f"/><rect x="184.5" y="184.5" width="9" height="9" fill="rgb(238,229,47)"/><rect x="202.5" y="184.5" width="9" height="9" fill="rgb(238,229,47)"/><rect x="234" y="144" width="72" height="72" fill="none" stroke="#202020"/><rect x="256.5" y="166.5" width="9" height="9" fill="#9aced6"/><rect x="265.5" y="166.5" width="9" height="9" fill="rgb(107,153,217)"/><rect x="274.5" y="166.5" width="9" height="9" fill="#9aced6"/><rect x="256.5" y="175.5" width="9" height="9" fill="rgb(118,176,209)"/><rect x="265.5" y="175.5" width="9" height="9" fill="rgb(70,110,206)"/><rect x="274.5" y="175.5" width="9" height="9" fill="rgb(51,67,196)"/><rect x="256.5" y="184.5" width="9" height="9" fill="rgb(83,147,205)"/><rect x="274.5" y="184.5" width="9" height="9" fill="rgb(117,30,189)"/><rect x="283.5" y="184.5" width="9" height="9" fill="rgb(103,161,152)"/><rect x="274.5" y="193.5" width="9" height="9" fill="rgb(221,251,16)"/><rect x="306" y="144" width="72" height="72" fill="none" stroke="#202020"/><rect x="337.5" y="166.5" width="9" height="9" fill="#e25fa8"/><rect x="346.5" y="166.5" width="9" height="9" fill="rgb(75,166,61)"/><rect x="346.5" y="184.5" width="9" height="9" fill="#0b4d12"/><rect x="378" y="144" width="72" height="72" fill="none" stroke="#202020"/><rect x="400.5" y="166.5" width="9" height="9" fill="#b56521"/><rect x="409.5" y="166.5" width="9" height="9" fill="#2e84ab"/><rect x="400.5" y="175.5" width="9" height="9" fill="rgb(156,110,101)"/><rect x="400.5" y="184.5" width="9" height="9" fill="rgb(74,129,40)"/><rect x="409.5" y="184.5" width="9" height="9" fill="rgb(13,197,90)"/><rect x="418.5" y="184.5" width="9" height="9" fill="rgb(154,131,98)"/><rect x="450" y="144" width="72" height="72" fill="none" stroke="#202020"/><rect x="499.5" y="175.5" width="9" height="9" fill="#2cea4d"/><rect x="472.5" y="184.5" width="9" height="9" fill="#a8c04f"/><rect x="481.5" y="184.5" width="9" height="9" fill="rgb(204,71,173)"/><rect x="490.5" y="184.5" width="9" height="9" fill="rgb(165,203,134)"/><rect x="499.5" y="184.5" width="9" height="9" fill="rgb(102,121,141)"/><rect x="522" y="144" width="72" height="72" fill="none" stroke="#202020"/><rect x="544.5" y="166.5" width="9" height="9" fill="#0c56b4"/><rect x="553.5" y="166.5" width="9" height="9" fill="rgb(74,98,156)"/><rect x="562.5" y="166.5" width="9" height="9" fill="rgb(135,109,133)"/><rect x="553.5" y="175.5" width="9" height="9" fill="rgb(197,121,109)"/><rect x="553.5" y="193.5" width="9" height="9" fill="#80b135"/><rect x="18" y="216" width="72" height="72" fill="none" stroke="#202020"/><rect x="40.5" y="247.5" width="9" height="9" fill="#e7ed58"/><rect x="49.5" y="247.5" width="9" height="9" fill="rgb(197,123,170)"/><rect x="58.5" y="247.5" width="9" height="9" fill="rgb(217,188,112)"/><rect x="67.5" y="247.5" width="9" height="9" fill="#e7ed58"/><rect x="90" y="216" width="72" height="72" fill="none" stroke="#202020"/><rect x="121.5" y="247.5" width="9" height="9" fill="#4fc910"/><rect x="112.5" y="256.5" width="9" height="9" fill="rgb(79,201,16)"/><rect x="121.5" y="256.5" width="9" height="9" fill="rgb(79,201,16)"/><rect x="130.5" y="256.5" width="9" height="9" fill="#4fc910"/><rect x="162" y="216" width="72" height="72" fill="none" stroke="#202020"/><rect x="175.5" y="238.5" width="9" height="9" fill="#78a7a3"/><rect x="211.5" y="238.5" width="9" height="9" fill="#78a7a3"/><rect x="175.5" y="247.5" width="9" height="9" fill="rgb(106,115,52)"/><rect x="184.5" y="247.5" width="9" height="9" fill="rgb(23,76,20)"/><rect x="193.5" y="247.5" width="9" height="9" fill="rgb(38,113,34)"/><rect x="202.5" y="247.5" width="9" height="9" fill="rgb(43,126,38)"/><rect x="211.5" y="247.5" width="9" height="9" fill="rgb(180,184,119)"/><rect x="184.5" y="256.5" width="9" height="9" fill="rgb(28,89,25)"/><rect x="193.5" y="256.5" width="9" height="9" fill="rgb(33,101,29)"/><rect x="202.5" y="256.5" width="9" height="9" fill="rgb(56,107,87)"/><rect x="211.5" y="256.5" width="9" height="9" fill="rgb(81,45,199)"/><rect x="234" y="216" width="72" height="72" fill="none" stroke="#202020"/><rect x="256.5" y="238.5" width="9" height="9" fill="#3367c2"/><rect x="256.5" y="247.5" width="9" height="9" fill="rgb(167,213,183)"/><rect x="265.5" y="247.5" width="9" height="9" fill="rgb(187,227,161)"/><rect x="274.5" y="247.5" width="9" height="9" fill="rgb(159,33,175)"/><rect x="256.5" y="256.5" width="9" height="9" fill="rgb(129,34,154)"/><rect x="265.5" y="256.5" width="9" height="9" fill="rgb(156,192,133)"/><rect x="256.5" y="265.5" width="9" height="9" fill="rgb(71,80,165)"/><rect x="265.5" y="265.5" width="9" height="9" fill="rgb(65,150,207)"/><rect x="274.5" y="265.5" width="9" height="9" fill="#7047b1"/><rect x="306" y="216" width="72" height="72" fill="none" stroke="#202020"/><rect x="355.5" y="238.5" width="9" height="9" fill="#75f7b4"/><rect x="328.5" y="247.5" width="9" height="9" fill="rgb(104,95,191)"/><rect x="337.5" y="247.5" width="9" height="9" fill="rgb(108,146,187)"/><rect x="346.5" y="247.5" width="9" height="9" fill="rgb(113,196,184)"/><rect x="337.5" y="256.5" width="9" height="9" fill="#94b6df"/><rect x="378" y="216" width="72" height="72" fill="none" stroke="#202020"/><rect x="400.5" y="238.5" width="9" height="9" fill="#f330c2"/><rect x="418.5" y="238.5" width="9" height="9" fill="rgb(101,43,156)"/><rect x="400.5" y="247.5" width="9" height="9" fill="rgb(191,46,143)"/><rect x="409.5" y="247.5" width="9" height="9" fill="rgb(139,44,92)"/><rect x="418.5" y="247.5" width="9" height="9" fill="rgb(126,58,58)"/><rect x="400.5" y="256.5" width="9" height="9" fill="#f330c2"/><rect x="418.5" y="256.5" width="9" height="9" fill="rgb(107,21,188)"/><rect x="450" y="216" width="72" height="72" fill="none" stroke="#202020"/><rect x="490.5" y="247.5" width="9" height="9" fill="#6d4e35"/><rect x="463.5" y="256.5" width="9" height="9" fill="#6d4e35"/><rect x="472.5" y="256.5" width="9" height="9" fill="rgb(104,129,44)"/><rect x="490.5" y="256.5" width="9" height="9" fill="rgb(96,59,178)"/><rect x="499.5" y="256.5" width="9" height="9" fill="rgb(100,180,35)"/><rect x="522" y="216" width="72" height="72" fill="none" stroke="#202020"/><rect x="544.5" y="247.5" width="9" height="9" fill="#bc63a7"/><rect x="553.5" y="247.5" width="9" height="9" fill="rgb(73,133,85)"/><rect x="562.5" y="247.5" width="9" height="9" fill="rgb(66,204,40)"/><rect x="535.5" y="256.5" width="9" height="9" fill="#e74407"/><rect x="544.5" y="256.5" width="9" height="9" fill="rgb(31,12,69)"/><rect x="571.5" y="256.5" width="9" height="9" fill="rgb(31,102,98)"/><rect x="18" y="288" width="72" height="72" fill="none" stroke="#202020"/><rect x="58.5" y="310.5" width="9" height="9" fill="#fc6ffb"/><rect x="58.5" y="319.5" width="9" height="9" fill="rgb(190,171,161)"/><rect x="49.5" y="328.5" width="9" height="9" fill="#ea2907"/><rect x="58.5" y="328.5" width="9" height="9" fill="rgb(236,205,150)"/><rect x="58.5" y="337.5" width="9" height="9" fill="rgb(235,123,79)"/><rect x="90" y="288" width="72" height="72" fill="none" stroke="#202020"/><rect x="112.5" y="319.5" width="9" height="9" fill="#34344c"/><rect x="121.5" y="319.5" width="9" height="9" fill="rgb(56,117,55)"/><rect x="130.5" y="319.5" width="9" height="9" fill="rgb(90,72,71)"/><rect x="139.5" y="328.5" width="9" height="9" fill="#7b1b58"/><rect x="162" y="288" width="72" height="72" fill="none" stroke="#202020"/><rect x="211.5" y="310.5" width="9" height="9" fill="#f136da"/><rect x="175.5" y="319.5" width="9" height="9" fill="rgb(65,128,116)"/><rect x="184.5" y="319.5" width="9" height="9" fill="rgb(22,5,134)"/><rect x="202.5" y="319.5" width="9" height="9" fill="rgb(248,60,92)"/><rect x="211.5" y="319.5" width="9" height="9" fill="rgb(244,57,155)"/><rect x="175.5" y="328.5" width="9" height="9" fill="#75e124"/><rect x="184.5" y="328.5" width="9" height="9" fill="rgb(175,66,170)"/><rect x="202.5" y="328.5" width="9" height="9" fill="rgb(226,62,111)"/><rect x="211.5" y="328.5" width="9" height="9" fill="rgb(200,64,141)"/><rect x="234" y="288" width="72" height="72" fill="none" stroke="#202020"/><rect x="265.5" y="310.5" width="9" height="9" fill="#8c9ec0"/><rect x="274.5" y="310.5" width="9" height="9" fill="rgb(96,195,153)"/><rect x="283.5" y="310.5" width="9" height="9" fill="rgb(79,117,102)"/><rect x="247.5" y="328.5" width="9" height="9" fill="#4533d4"/><rect x="256.5" y="328.5" width="9" height="9" fill="rgb(174,46,147)"/><rect x="265.5" y="328.5" width="9" height="9" fill="rgb(16,159,32)"/><rect x="306" y="288" width="72" height="72" fill="none" stroke="#202020"/><rect x="337.5" y="310.5" width="9" height="9" fill="#200776"/><rect x="337.5" y="319.5" width="9" height="9" fill="rgb(162,85,74)"/><rect x="346.5" y="328.5" width="9" height="9" fill="#200776"/><rect x="378" y="288" width="72" height="72" fill="none" stroke="#202020"/><rect x="409.5" y="310.5" width="9" height="9" fill="#9b0ea9"/><rect x="400.5" y="319.5" width="9" height="9" fill="rgb(224,208,141)"/><rect x="409.5" y="319.5" width="9" height="9" fill="rgb(137,100,99)"/><rect x="418.5" y="319.5" width="9" height="9" fill="#bff8bc"/><rect x="409.5" y="328.5" width="9" height="9" fill="rgb(71,171,58)"/><rect x="450" y="288" width="72" height="72" fill="none" stroke="#202020"/><rect x="472.5" y="310.5" width="9" height="9" fill="#e75aea"/><rect x="481.5" y="310.5" width="9" height="9" fill="rgb(194,77,202)"/><rect x="490.5" y="310.5" width="9" height="9" fill="rgb(157,64,170)"/><rect x="472.5" y="328.5" width="9" height="9" fill="#2f184a"/><rect x="481.5" y="328.5" width="9" height="9" fill="rgb(84,37,106)"/><rect x="490.5" y="328.5" width="9" height="9" fill="rgb(121,50,138)"/><rect x="522" y="288" width="72" height="72" fill="none" stroke="#202020"/><rect x="544.5" y="310.5" width="9" height="9" fill="#c863cb"/><rect x="562.5" y="310.5" width="9" height="9" fill="#92963b"/><rect x="544.5" y="319.5" width="9" height="9" fill="rgb(191,108,179)"/><rect x="553.5" y="319.5" width="9" height="9" fill="rgb(182,116,155)"/><rect x="562.5" y="319.5" width="9" height="9" fill="rgb(155,142,83)"/><rect x="553.5" y="328.5" width="9" height="9" fill="rgb(173,125,131)"/><rect x="562.5" y="328.5" width="9" height="9" fill="rgb(164,133,107)"/><rect x="18" y="360" width="72" height="72" fill="none" stroke="#202020"/><rect x="31.5" y="391.5" width="9" height="9" fill="#6c4be0"/><rect x="58.5" y="391.5" width="9" height="9" fill="rgb(108,75,224)"/><rect x="67.5" y="391.5" width="9" height="9" fill="#6c4be0"/><rect x="90" y="360" width="72" height="72" fill="none" stroke="#202020"/><rect x="112.5" y="382.5" width="9" height="9" fill="#50b9f1"/><rect x="130.5" y="382.5" width="9" height="9" fill="rgb(114,98,118)"/><rect x="112.5" y="391.5" width="9" height="9" fill="rgb(97,50,90)"/><rect x="130.5" y="391.5" width="9" height="9" fill="rgb(105,69,97)"/><rect x="130.5" y="400.5" width="9" height="9" fill="#a5e11b"/><rect x="162" y="360" width="72" height="72" fill="none" stroke="#202020"/><rect x="202.5" y="391.5" width="9" height="9" fill="#a79a54"/><rect x="193.5" y="400.5" width="9" height="9" fill="#a79a54"/><rect x="202.5" y="400.5" width="9" height="9" fill="rgb(167,154,84)"/><rect x="234" y="360" width="72" height="72" fill="none" stroke="#202020"/><rect x="256.5" y="382.5" width="9" height="9" fill="#f209e7"/><rect x="265.5" y="391.5" width="9" height="9" fill="rgb(192,56,192)"/><rect x="265.5" y="400.5" width="9" height="9" fill="rgb(143,102,153)"/><rect x="274.5" y="400.5" width="9" height="9" fill="rgb(122,35,26)"/><rect x="283.5" y="400.5" width="9" height="9" fill="#b40362"/><rect x="256.5" y="409.5" width="9" height="9" fill="rgb(90,115,163)"/><rect x="274.5" y="409.5" width="9" height="9" fill="rgb(146,52,37)"/><rect x="306" y="360" width="72" height="72" fill="none" stroke="#202020"/><rect x="319.5" y="391.5" width="9" height="9" fill="#9efa56"/><rect x="328.5" y="391.5" width="9" height="9" fill="rgb(158,250,86)"/><rect x="337.5" y="391.5" width="9" height="9" fill="rgb(158,250,86)"/><rect x="346.5" y="391.5" width="9" height="9" fill="rgb(158,250,86)"/><rect x="355.5" y="391.5" width="9" height="9" fill="#9efa56"/><rect x="378" y="360" width="72" height="72" fill="none" stroke="#202020"/><rect x="409.5" y="391.5" width="9" height="9" fill="#f674ed"/><rect x="409.5" y="400.5" width="9" height="9" fill="rgb(193,143,137)"/><rect x="418.5" y="400.5" width="9" height="9" fill="#f674ed"/><rect x="450" y="360" width="72" height="72" fill="none" stroke="#202020"/><rect x="463.5" y="382.5" width="9" height="9" fill="#588035"/><rect x="472.5" y="382.5" width="9" height="9" fill="rgb(94,144,91)"/><rect x="481.5" y="382.5" width="9" height="9" fill="rgb(99,161,129)"/><rect x="490.5" y="382.5" width="9" height="9" fill="rgb(105,177,168)"/><rect x="499.5" y="382.5" width="9" height="9" fill="rgb(110,194,206)"/><rect x="463.5" y="400.5" width="9" height="9" fill="#74d2f4"/><rect x="522" y="360" width="72" height="72" fill="none" stroke="#202020"/><rect x="553.5" y="382.5" width="9" height="9" fill="#cd9789"/><rect x="553.5" y="391.5" width="9" height="9" fill="rgb(47,75,79)"/><rect x="553.5" y="400.5" width="9" height="9" fill="rgb(50,19,71)"/><rect x="562.5" y="400.5" width="9" height="9" fill="#e5dda5"/><rect x="553.5" y="409.5" width="9" height="9" fill="rgb(99,75,161)"/><rect x="18" y="432" width="72" height="72" fill="none" stroke="#202020"/><rect x="40.5" y="454.5" width="9" height="9" fill="#1d4744"/><rect x="49.5" y="454.5" width="9" height="9" fill="rgb(84,37,168)"/><rect x="58.5" y="454.5" width="9" height="9" fill="rgb(63,60,169)"/><rect x="40.5" y="463.5" width="9" height="9" fill="#fa7643"/><rect x="40.5" y="472.5" width="9" height="9" fill="rgb(105,102,137)"/><rect x="58.5" y="472.5" width="9" height="9" fill="rgb(41,83,171)"/><rect x="90" y="432" width="72" height="72" fill="none" stroke="#202020"/><rect x="112.5" y="463.5" width="9" height="9" fill="#9071ce"/><rect x="112.5" y="472.5" width="9" height="9" fill="rgb(156,46,82)"/><rect x="121.5" y="472.5" width="9" height="9" fill="rgb(226,169,148)"/><rect x="130.5" y="472.5" width="9" height="9" fill="#9071ce"/><rect x="162" y="432" width="72" height="72" fill="none" stroke="#202020"/><rect x="202.5" y="454.5" width="9" height="9" fill="#9436fe"/><rect x="202.5" y="463.5" width="9" height="9" fill="rgb(216,144,209)"/><rect x="193.5" y="472.5" width="9" height="9" fill="#9436fe"/><rect x="202.5" y="472.5" width="9" height="9" fill="rgb(153,175,80)"/><rect x="234" y="432" width="72" height="72" fill="none" stroke="#202020"/><rect x="256.5" y="454.5" width="9" height="9" fill="#ad2ff6"/><rect x="274.5" y="463.5" width="9" height="9" fill="rgb(156,37,189)"/><rect x="283.5" y="463.5" width="9" height="9" fill="rgb(138,28,133)"/><rect x="274.5" y="472.5" width="9" height="9" fill="#79124c"/><rect x="306" y="432" width="72" height="72" fill="none" stroke="#202020"/><rect x="328.5" y="463.5" width="9" height="9" fill="#3d7400"/><rect x="337.5" y="463.5" width="9" height="9" fill="rgb(49,43,162)"/><rect x="355.5" y="463.5" width="9" height="9" fill="#63185e"/><rect x="337.5" y="472.5" width="9" height="9" fill="rgb(60,13,50)"/><rect x="355.5" y="472.5" width="9" height="9" fill="rgb(85,50,203)"/><rect x="378" y="432" width="72" height="72" fill="none" stroke="#202020"/><rect x="409.5" y="454.5" width="9" height="9" fill="#ee31f6"/><rect x="409.5" y="463.5" width="9" height="9" fill="rgb(166,100,196)"/><rect x="418.5" y="463.5" width="9" height="9" fill="rgb(93,151,146)"/><rect x="400.5" y="472.5" width="9" height="9" fill="#747b26"/><rect x="418.5" y="472.5" width="9" height="9" fill="rgb(21,202,97)"/><rect x="409.5" y="481.5" width="9" height="9" fill="rgb(166,175,107)"/><rect x="418.5" y="481.5" width="9" height="9" fill="rgb(121,40,123)"/><rect x="427.5" y="481.5" width="9" height="9" fill="rgb(122,141,190)"/><rect x="450" y="432" width="72" height="72" fill="none" stroke="#202020"/><rect x="472.5" y="454.5" width="9" height="9" fill="#b675ba"/><rect x="481.5" y="454.5" width="9" height="9" fill="rgb(165,125,156)"/><rect x="490.5" y="454.5" width="9" height="9" fill="rgb(149,133,126)"/><rect x="472.5" y="463.5" width="9" height="9" fill="rgb(99,157,36)"/><rect x="481.5" y="463.5" width="9" height="9" fill="rgb(115,149,66)"/><rect x="490.5" y="463.5" width="9" height="9" fill="rgb(132,141,96)"/><rect x="472.5" y="472.5" width="9" height="9" fill="#52a506"/><rect x="522" y="432" width="72" height="72" fill="none" stroke="#202020"/><rect x="553.5" y="454.5" width="9" height="9" fill="#782844"/><rect x="553.5" y="463.5" width="9" height="9" fill="rgb(81,152,38)"/><rect x="553.5" y="472.5" width="9" height="9" fill="rgb(88,190,186)"/><rect x="553.5" y="481.5" width="9" height="9" fill="#91f626"/><rect x="18" y="504" width="72" height="72" fill="none" stroke="#202020"/><rect x="67.5" y="517.5" width="9" height="9" fill="#c20ae1"/><rect x="58.5" y="526.5" width="9" height="9" fill="rgb(200,26,71)"/><rect x="67.5" y="526.5" width="9" height="9" fill="rgb(192,19,38)"/><rect x="58.5" y="535.5" width="9" height="9" fill="rgb(208,36,100)"/><rect x="67.5" y="535.5" width="9" height="9" fill="rgb(204,69,90)"/><rect x="40.5" y="544.5" width="9" height="9" fill="#b67a53"/><rect x="49.5" y="544.5" width="9" height="9" fill="rgb(128,134,113)"/><rect x="58.5" y="544.5" width="9" height="9" fill="rgb(75,146,143)"/><rect x="67.5" y="544.5" width="9" height="9" fill="rgb(201,103,81)"/><rect x="58.5" y="553.5" width="9" height="9" fill="rgb(28,126,196)"/><rect x="67.5" y="553.5" width="9" height="9" fill="rgb(197,136,71)"/><rect x="90" y="504" width="72" height="72" fill="none" stroke="#202020"/><rect x="130.5" y="535.5" width="9" height="9" fill="#5a88bc"/><rect x="112.5" y="544.5" width="9" height="9" fill="#5a88bc"/><rect x="121.5" y="544.5" width="9" height="9" fill="rgb(90,136,188)"/><rect x="130.5" y="544.5" width="9" height="9" fill="rgb(90,136,188)"/><rect x="162" y="504" width="72" height="72" fill="none" stroke="#202020"/><rect x="211.5" y="526.5" width="9" height="9" fill="#8c9827"/><rect x="184.5" y="535.5" width="9" height="9" fill="#d68f9f"/><rect x="184.5" y="544.5" width="9" height="9" fill="rgb(28,194,118)"/><rect x="193.5" y="544.5" width="9" height="9" fill="rgb(72,130,78)"/><rect x="202.5" y="544.5" width="9" height="9" fill="rgb(128,126,58)"/><rect x="234" y="504" width="72" height="72" fill="none" stroke="#202020"/><rect x="256.5" y="526.5" width="9" height="9" fill="#4c1d22"/><rect x="265.5" y="526.5" width="9" height="9" fill="rgb(242,58,227)"/><rect x="274.5" y="526.5" width="9" height="9" fill="rgb(232,79,228)"/><rect x="256.5" y="535.5" width="9" height="9" fill="#c1a5e6"/><rect x="274.5" y="535.5" width="9" height="9" fill="rgb(223,101,228)"/><rect x="256.5" y="544.5" width="9" height="9" fill="rgb(203,144,229)"/><rect x="274.5" y="544.5" width="9" height="9" fill="rgb(213,122,229)"/><rect x="306" y="504" width="72" height="72" fill="none" stroke="#202020"/><rect x="328.5" y="526.5" width="9" height="9" fill="#d33e2d"/><rect x="328.5" y="535.5" width="9" height="9" fill="rgb(62,153,102)"/><rect x="328.5" y="544.5" width="9" height="9" fill="rgb(51,117,83)"/><rect x="346.5" y="544.5" width="9" height="9" fill="#d33e2d"/><rect x="378" y="504" width="72" height="72" fill="none" stroke="#202020"/><rect x="409.5" y="526.5" width="9" height="9" fill="#511dbc"/><rect x="418.5" y="526.5" width="9" height="9" fill="rgb(123,63,99)"/><rect x="427.5" y="526.5" width="9" height="9" fill="#511dbc"/><rect x="418.5" y="535.5" width="9" height="9" fill="rgb(211,161,192)"/><rect x="400.5" y="544.5" width="9" height="9" fill="rgb(117,197,51)"/><rect x="409.5" y="544.5" width="9" height="9" fill="rgb(133,216,41)"/><rect x="418.5" y="544.5" width="9" height="9" fill="rgb(149,126,132)"/><rect x="427.5" y="544.5" width="9" height="9" fill="rgb(99,113,119)"/><rect x="450" y="504" width="72" height="72" fill="none" stroke="#202020"/><rect x="472.5" y="526.5" width="9" height="9" fill="#51cd52"/><rect x="481.5" y="526.5" width="9" height="9" fill="rgb(119,213,102)"/><rect x="490.5" y="526.5" width="9" height="9" fill="#769abe"/><rect x="472.5" y="535.5" width="9" height="9" fill="rgb(194,230,141)"/><rect x="481.5" y="535.5" width="9" height="9" fill="rgb(157,222,121)"/><rect x="472.5" y="544.5" width="9" height="9" fill="rgb(170,205,157)"/><rect x="490.5" y="544.5" width="9" height="9" fill="rgb(144,179,174)"/><rect x="522" y="504" width="72" height="72" fill="none" stroke="#202020"/><rect x="562.5" y="526.5" width="9" height="9" fill="#27dd0f"/><rect x="544.5" y="535.5" width="9" height="9" fill="#9420e7"/><rect x="553.5" y="535.5" width="9" height="9" fill="rgb(132,59,200)"/><rect x="562.5" y="535.5" width="9" height="9" fill="rgb(55,194,46)"/><rect x="571.5" y="535.5" width="9" height="9" fill="rgb(70,167,77)"/><rect x="553.5" y="544.5" width="9" height="9" fill="rgb(117,86,169)"/><rect x="562.5" y="544.5" width="9" height="9" fill="rgb(101,113,138)"/><rect x="571.5" y="544.5" width="9" height="9" fill="rgb(86,140,108)"/><rect x="18" y="576" width="72" height="72" fill="none" stroke="#202020"/><rect x="31.5" y="598.5" width="9" height="9" fill="#002dad"/><rect x="40.5" y="598.5" width="9" height="9" fill="rgb(129,76,173)"/><rect x="49.5" y="598.5" width="9" height="9" fill="rgb(165,132,157)"/><rect x="31.5" y="607.5" width="9" height="9" fill="rgb(181,187,122)"/><rect x="40.5" y="607.5" width="9" height="9" fill="rgb(193,207,97)"/><rect x="58.5" y="607.5" width="9" height="9" fill="rgb(79,42,216)"/><rect x="67.5" y="607.5" width="9" height="9" fill="#04402e"/><rect x="31.5" y="616.5" width="9" height="9" fill="rgb(136,118,23)"/><rect x="40.5" y="616.5" width="9" height="9" fill="rgb(164,163,60)"/><rect x="49.5" y="616.5" width="9" height="9" fill="rgb(140,112,64)"/><rect x="90" y="576" width="72" height="72" fill="none" stroke="#202020"/><rect x="130.5" y="598.5" width="9" height="9" fill="#cceab8"/><rect x="130.5" y="607.5" width="9" height="9" fill="rgb(197,241,134)"/><rect x="130.5" y="616.5" width="9" height="9" fill="rgb(189,247,84)"/><rect x="121.5" y="625.5" width="9" height="9" fill="#b6fe22"/><rect x="162" y="576" width="72" height="72" fill="none" stroke="#202020"/><rect x="184.5" y="598.5" width="9" height="9" fill="#b81af9"/><rect x="193.5" y="598.5" width="9" height="9" fill="rgb(119,124,222)"/><rect x="202.5" y="598.5" width="9" height="9" fill="rgb(124,199,168)"/><rect x="202.5" y="616.5" width="9" height="9" fill="#f3ec45"/><rect x="234" y="576" width="72" height="72" fill="none" stroke="#202020"/><rect x="274.5" y="589.5" width="9" height="9" fill="#f2bc23"/><rect x="265.5" y="598.5" width="9" height="9" fill="rgb(207,192,211)"/><rect x="274.5" y="598.5" width="9" height="9" fill="rgb(135,133,56)"/><rect x="274.5" y="616.5" width="9" height="9" fill="rgb(192,166,234)"/><rect x="274.5" y="625.5" width="9" height="9" fill="#f2bc23"/><rect x="306" y="576" width="72" height="72" fill="none" stroke="#202020"/><rect x="346.5" y="598.5" width="9" height="9" fill="#83748d"/><rect x="337.5" y="607.5" width="9" height="9" fill="#ecd739"/><rect x="346.5" y="607.5" width="9" height="9" fill="rgb(166,149,113)"/><rect x="346.5" y="616.5" width="9" height="9" fill="rgb(201,182,85)"/><rect x="378" y="576" width="72" height="72" fill="none" stroke="#202020"/><rect x="400.5" y="598.5" width="9" height="9" fill="#277a5d"/><rect x="418.5" y="598.5" width="9" height="9" fill="#1a8a21"/><rect x="400.5" y="607.5" width="9" height="9" fill="rgb(35,127,73)"/><rect x="400.5" y="616.5" width="9" height="9" fill="rgb(30,133,53)"/><rect x="450" y="576" width="72" height="72" fill="none" stroke="#202020"/><rect x="472.5" y="598.5" width="9" height="9" fill="#90f892"/><rect x="481.5" y="598.5" width="9" height="9" fill="rgb(100,185,128)"/><rect x="490.5" y="598.5" width="9" height="9" fill="rgb(57,122,110)"/><rect x="472.5" y="607.5" width="9" height="9" fill="#4c7e15"/><rect x="490.5" y="607.5" width="9" height="9" fill="rgb(13,60,92)"/><rect x="472.5" y="616.5" width="9" height="9" fill="rgb(160,95,55)"/><rect x="481.5" y="616.5" width="9" height="9" fill="rgb(145,44,69)"/><rect x="490.5" y="616.5" width="9" height="9" fill="rgb(140,140,178)"/><rect x="522" y="576" width="72" height="72" fill="none" stroke="#202020"/><rect x="571.5" y="598.5" width="9" height="9" fill="#3714b6"/><rect x="562.5" y="607.5" width="9" height="9" fill="rgb(43,81,141)"/><rect x="571.5" y="607.5" width="9" height="9" fill="rgb(49,51,161)"/><rect x="562.5" y="616.5" width="9" height="9" fill="rgb(37,112,120)"/><rect x="535.5" y="625.5" width="9" height="9" fill="#13cc3a"/><rect x="562.5" y="625.5" width="9" height="9" fill="rgb(31,143,99)"/><rect x="571.5" y="625.5" width="9" height="9" fill="rgb(25,173,79)"/><rect x="18" y="648" width="72" height="72" fill="none" stroke="#202020"/><rect x="40.5" y="670.5" width="9" height="9" fill="#7ecab2"/><rect x="49.5" y="670.5" width="9" height="9" fill="rgb(228,131,77)"/><rect x="58.5" y="670.5" width="9" height="9" fill="rgb(208,145,97)"/><rect x="31.5" y="679.5" width="9" height="9" fill="#7ecab2"/><rect x="40.5" y="679.5" width="9" height="9" fill="rgb(146,188,158)"/><rect x="49.5" y="679.5" width="9" height="9" fill="rgb(167,174,138)"/><rect x="58.5" y="679.5" width="9" height="9" fill="rgb(187,160,118)"/><rect x="67.5" y="679.5" width="9" height="9" fill="rgb(219,146,234)"/><rect x="40.5" y="688.5" width="9" height="9" fill="rgb(249,117,57)"/><rect x="58.5" y="688.5" width="9" height="9" fill="rgb(96,211,190)"/><rect x="90" y="648" width="72" height="72" fill="none" stroke="#202020"/><rect x="112.5" y="670.5" width="9" height="9" fill="#875ec5"/><rect x="112.5" y="679.5" width="9" height="9" fill="rgb(124,236,253)"/><rect x="112.5" y="688.5" width="9" height="9" fill="rgb(163,213,251)"/><rect x="130.5" y="697.5" width="9" height="9" fill="#cabff9"/><rect x="162" y="648" width="72" height="72" fill="none" stroke="#202020"/><rect x="184.5" y="670.5" width="9" height="9" fill="#0ae31e"/><rect x="202.5" y="670.5" width="9" height="9" fill="#db1372"/><rect x="184.5" y="679.5" width="9" height="9" fill="rgb(93,173,27)"/><rect x="184.5" y="688.5" width="9" height="9" fill="rgb(154,120,65)"/><rect x="193.5" y="688.5" width="9" height="9" fill="rgb(146,85,155)"/><rect x="202.5" y="688.5" width="9" height="9" fill="rgb(182,52,134)"/><rect x="234" y="648" width="72" height="72" fill="none" stroke="#202020"/><rect x="256.5" y="670.5" width="9" height="9" fill="#90bcc7"/><rect x="265.5" y="670.5" width="9" height="9" fill="rgb(135,202,151)"/><rect x="274.5" y="670.5" width="9" height="9" fill="rgb(126,216,103)"/><rect x="256.5" y="679.5" width="9" height="9" fill="rgb(122,171,146)"/><rect x="265.5" y="679.5" width="9" height="9" fill="#89a1b3"/><rect x="274.5" y="679.5" width="9" height="9" fill="rgb(116,230,55)"/><rect x="256.5" y="688.5" width="9" height="9" fill="rgb(107,181,113)"/><rect x="265.5" y="688.5" width="9" height="9" fill="rgb(92,191,80)"/><rect x="274.5" y="688.5" width="9" height="9" fill="rgb(97,226,28)"/><rect x="306" y="648" width="72" height="72" fill="none" stroke="#202020"/><rect x="328.5" y="679.5" width="9" height="9" fill="#427bfe"/><rect x="337.5" y="679.5" width="9" height="9" fill="#1b6e9f"/><rect x="346.5" y="679.5" width="9" height="9" fill="rgb(19,46,154)"/><rect x="328.5" y="688.5" width="9" height="9" fill="rgb(217,134,18)"/><rect x="337.5" y="688.5" width="9" height="9" fill="rgb(135,155,26)"/><rect x="346.5" y="688.5" width="9" height="9" fill="rgb(58,173,39)"/><rect x="378" y="648" width="72" height="72" fill="none" stroke="#202020"/><rect x="409.5" y="670.5" width="9" height="9" fill="#8f51fe"/><rect x="409.5" y="679.5" width="9" height="9" fill="rgb(143,81,254)"/><rect x="409.5" y="688.5" width="9" height="9" fill="rgb(143,81,254)"/><rect x="400.5" y="697.5" width="9" height="9" fill="#8f51fe"/><rect x="409.5" y="697.5" width="9" height="9" fill="rgb(143,81,254)"/><rect x="418.5" y="697.5" width="9" height="9" fill="rgb(143,81,254)"/><rect x="450" y="648" width="72" height="72" fill="none" stroke="#202020"/><rect x="481.5" y="670.5" width="9" height="9" fill="#d06286"/><rect x="472.5" y="679.5" width="9" height="9" fill="rgb(66,175,202)"/><rect x="481.5" y="679.5" width="9" height="9" fill="rgb(65,175,202)"/><rect x="490.5" y="679.5" width="9" height="9" fill="rgb(137,137,168)"/><rect x="481.5" y="697.5" width="9" height="9" fill="#d06286"/><rect x="522" y="648" width="72" height="72" fill="none" stroke="#202020"/><rect x="544.5" y="670.5" width="9" height="9" fill="#5d2f3b"/><rect x="562.5" y="670.5" width="9" height="9" fill="rgb(183,143,218)"/><rect x="544.5" y="679.5" width="9" height="9" fill="rgb(99,212,39)"/><rect x="553.5" y="679.5" width="9" height="9" fill="rgb(127,189,99)"/><rect x="562.5" y="679.5" width="9" height="9" fill="rgb(155,166,159)"/><rect x="571.5" y="679.5" width="9" height="9" fill="rgb(102,105,49)"/><rect x="544.5" y="688.5" width="9" height="9" fill="#5d2f3b"/><rect x="562.5" y="688.5" width="9" height="9" fill="rgb(111,163,40)"/><rect x="18" y="720" width="72" height="72" fill="none" stroke="#202020"/><rect x="40.5" y="742.5" width="9" height="9" fill="#1c020c"/><rect x="49.5" y="742.5" width="9" height="9" fill="rgb(88,42,200)"/><rect x="49.5" y="751.5" width="9" height="9" fill="rgb(68,28,138)"/><rect x="67.5" y="751.5" width="9" height="9" fill="rgb(48,15,75)"/><rect x="67.5" y="760.5" width="9" height="9" fill="#1c020c"/><rect x="90" y="720" width="72" height="72" fill="none" stroke="#202020"/><rect x="139.5" y="742.5" width="9" height="9" fill="#e1e955"/><rect x="112.5" y="751.5" width="9" height="9" fill="rgb(153,181,25)"/><rect x="121.5" y="751.5" width="9" height="9" fill="rgb(206,106,193)"/><rect x="130.5" y="751.5" width="9" height="9" fill="rgb(118,79,113)"/><rect x="112.5" y="760.5" width="9" height="9" fill="rgb(228,165,50)"/><rect x="130.5" y="760.5" width="9" height="9" fill="#8d51fe"/><rect x="162" y="720" width="72" height="72" fill="none" stroke="#202020"/><rect x="193.5" y="742.5" width="9" height="9" fill="#0ce925"/><rect x="184.5" y="751.5" width="9" height="9" fill="rgb(142,179,153)"/><rect x="184.5" y="760.5" width="9" height="9" fill="rgb(201,139,177)"/><rect x="193.5" y="760.5" width="9" height="9" fill="rgb(88,61,150)"/><rect x="202.5" y="760.5" width="9" height="9" fill="#5ebc1d"/><rect x="234" y="720" width="72" height="72" fill="none" stroke="#202020"/><rect x="265.5" y="742.5" width="9" height="9" fill="#777164"/><rect x="265.5" y="751.5" width="9" height="9" fill="rgb(114,152,124)"/><rect x="274.5" y="751.5" width="9" height="9" fill="#67e7ab"/><rect x="265.5" y="760.5" width="9" height="9" fill="rgb(108,192,147)"/><rect x="306" y="720" width="72" height="72" fill="none" stroke="#202020"/><rect x="328.5" y="742.5" width="9" height="9" fill="#2517da"/><rect x="337.5" y="742.5" width="9" height="9" fill="rgb(51,44,212)"/><rect x="346.5" y="742.5" width="9" height="9" fill="rgb(59,58,201)"/><rect x="337.5" y="751.5" width="9" height="9" fill="rgb(10,17,131)"/><rect x="346.5" y="751.5" width="9" height="9" fill="rgb(34,37,166)"/><rect x="337.5" y="760.5" width="9" height="9" fill="#029906"/><rect x="378" y="720" width="72" height="72" fill="none" stroke="#202020"/><rect x="409.5" y="742.5" width="9" height="9" fill="#accf0a"/><rect x="418.5" y="751.5" width="9" height="9" fill="rgb(140,119,223)"/><rect x="409.5" y="760.5" width="9" height="9" fill="#3a1779"/><rect x="418.5" y="760.5" width="9" height="9" fill="rgb(125,150,107)"/><rect x="450" y="720" width="72" height="72" fill="none" stroke="#202020"/><rect x="490.5" y="742.5" width="9" height="9" fill="#65ab09"/><rect x="481.5" y="751.5" width="9" height="9" fill="rgb(136,59,109)"/><rect x="490.5" y="751.5" width="9" height="9" fill="rgb(166,78,123)"/><rect x="481.5" y="760.5" width="9" height="9" fill="rgb(106,39,94)"/><rect x="490.5" y="760.5" width="9" height="9" fill="#d0c33a"/><rect x="481.5" y="769.5" width="9" height="9" fill="rgb(75,20,79)"/><rect x="490.5" y="769.5" width="9" height="9" fill="rgb(86,91,120)"/><rect x="522" y="720" width="72" height="72" fill="none" stroke="#202020"/><rect x="562.5" y="742.5" width="9" height="9" fill="#407f0c"/><rect x="544.5" y="760.5" width="9" height="9" fill="rgb(72,75,82)"/><rect x="553.5" y="760.5" width="9" height="9" fill="rgb(161,48,104)"/><rect x="562.5" y="760.5" width="9" height="9" fill="rgb(206,69,67)"/><rect x="544.5" y="769.5" width="9" height="9" fill="rgb(79,23,153)"/><rect x="553.5" y="769.5" width="9" height="9" fill="rgb(116,27,141)"/><rect x="562.5" y="769.5" width="9" height="9" fill="#407f0c"/></svg>
