<svg xmlns="http://www.w3.org/2000/svg" width="612" height="810" viewBox="0 0 612 810"><rect width="100%" height="100%" fill="#000000"/><text x="18" y="23" fill="#d0d0d0" font-family="monospace" font-size="14">GLYPH ENGINE 2.3 — ONE UNIFORM BAND</text><text x="18" y="42" fill="#777777" font-family="monospace" font-size="10">one identical chromatic field, resolved through 80 on-chain identities</text><rect x="18" y="72" width="576" height="720" fill="#111111"/><rect x="18" y="72" width="72" height="72" fill="none" stroke="#202020"/><rect x="40.5" y="94.5" width="9" height="9" fill="#ef3e44"/><rect x="58.5" y="94.5" width="9" height="9" fill="#ef3e44"/><rect x="40.5" y="103.5" width="9" height="9" fill="rgb(245,219,77)"/><rect x="40.5" y="112.5" width="9" height="9" fill="rgb(91,202,194)"/><rect x="40.5" y="121.5" width="9" height="9" fill="rgb(127,76,168)"/><rect x="90" y="72" width="72" height="72" fill="none" stroke="#202020"/><rect x="121.5" y="94.5" width="9" height="9" fill="#ef3e44"/><rect x="112.5" y="103.5" width="9" height="9" fill="rgb(217,52,125)"/><rect x="121.5" y="103.5" width="9" height="9" fill="rgb(254,182,65)"/><rect x="130.5" y="103.5" width="9" height="9" fill="rgb(245,219,77)"/><rect x="103.5" y="112.5" width="9" height="9" fill="rgb(127,76,168)"/><rect x="112.5" y="112.5" width="9" height="9" fill="rgb(87,143,202)"/><rect x="130.5" y="112.5" width="9" height="9" fill="rgb(120,215,131)"/><rect x="139.5" y="112.5" width="9" height="9" fill="rgb(91,202,194)"/><rect x="121.5" y="121.5" width="9" height="9" fill="#ef3e44"/><rect x="162" y="72" width="72" height="72" fill="none" stroke="#202020"/><rect x="184.5" y="94.5" width="9" height="9" fill="#ef3e44"/><rect x="193.5" y="94.5" width="9" height="9" fill="rgb(249,204,72)"/><rect x="193.5" y="103.5" width="9" height="9" fill="rgb(104,213,143)"/><rect x="193.5" y="112.5" width="9" height="9" fill="rgb(86,161,208)"/><rect x="202.5" y="112.5" width="9" height="9" fill="rgb(167,65,151)"/><rect x="184.5" y="121.5" width="9" height="9" fill="#ef3e44"/><rect x="234" y="72" width="72" height="72" fill="none" stroke="#202020"/><rect x="256.5" y="94.5" width="9" height="9" fill="#ef3e44"/><rect x="256.5" y="103.5" width="9" height="9" fill="rgb(253,188,66)"/><rect x="265.5" y="103.5" width="9" height="9" fill="rgb(209,218,93)"/><rect x="274.5" y="103.5" width="9" height="9" fill="rgb(99,85,179)"/><rect x="256.5" y="112.5" width="9" height="9" fill="#ef3e44"/><rect x="265.5" y="112.5" width="9" height="9" fill="rgb(100,210,158)"/><rect x="274.5" y="112.5" width="9" height="9" fill="rgb(85,181,215)"/><rect x="265.5" y="121.5" width="9" height="9" fill="rgb(212,52,133)"/><rect x="306" y="72" width="72" height="72" fill="none" stroke="#202020"/><rect x="346.5" y="94.5" width="9" height="9" fill="#ef3e44"/><rect x="328.5" y="103.5" width="9" height="9" fill="#ef3e44"/><rect x="337.5" y="103.5" width="9" height="9" fill="rgb(219,53,119)"/><rect x="346.5" y="103.5" width="9" height="9" fill="rgb(255,178,63)"/><rect x="328.5" y="112.5" width="9" height="9" fill="rgb(87,112,192)"/><rect x="337.5" y="112.5" width="9" height="9" fill="rgb(149,70,159)"/><rect x="346.5" y="112.5" width="9" height="9" fill="rgb(247,211,74)"/><rect x="328.5" y="121.5" width="9" height="9" fill="rgb(85,193,219)"/><rect x="337.5" y="121.5" width="9" height="9" fill="rgb(98,208,166)"/><rect x="346.5" y="121.5" width="9" height="9" fill="rgb(162,216,113)"/><rect x="378" y="72" width="72" height="72" fill="none" stroke="#202020"/><rect x="400.5" y="94.5" width="9" height="9" fill="#ef3e44"/><rect x="400.5" y="103.5" width="9" height="9" fill="rgb(253,188,66)"/><rect x="418.5" y="103.5" width="9" height="9" fill="rgb(212,52,133)"/><rect x="391.5" y="112.5" width="9" height="9" fill="#ef3e44"/><rect x="400.5" y="112.5" width="9" height="9" fill="rgb(209,218,93)"/><rect x="409.5" y="112.5" width="9" height="9" fill="rgb(100,210,158)"/><rect x="418.5" y="112.5" width="9" height="9" fill="rgb(85,181,215)"/><rect x="427.5" y="112.5" width="9" height="9" fill="rgb(99,85,179)"/><rect x="450" y="72" width="72" height="72" fill="none" stroke="#202020"/><rect x="499.5" y="94.5" width="9" height="9" fill="#ef3e44"/><rect x="499.5" y="103.5" width="9" height="9" fill="rgb(251,195,69)"/><rect x="463.5" y="112.5" width="9" height="9" fill="rgb(193,57,141)"/><rect x="472.5" y="112.5" width="9" height="9" fill="rgb(87,112,192)"/><rect x="490.5" y="112.5" width="9" height="9" fill="rgb(91,202,194)"/><rect x="499.5" y="112.5" width="9" height="9" fill="rgb(162,216,113)"/><rect x="463.5" y="121.5" width="9" height="9" fill="#ef3e44"/><rect x="522" y="72" width="72" height="72" fill="none" stroke="#202020"/><rect x="553.5" y="94.5" width="9" height="9" fill="#ef3e44"/><rect x="562.5" y="94.5" width="9" height="9" fill="rgb(162,216,113)"/><rect x="571.5" y="94.5" width="9" height="9" fill="rgb(87,112,192)"/><rect x="544.5" y="112.5" width="9" height="9" fill="#ef3e44"/><rect x="18" y="144" width="72" height="72" fill="none" stroke="#202020"/><rect x="49.5" y="157.5" width="9" height="9" fill="#ef3e44"/><rect x="49.5" y="166.5" width="9" height="9" fill="rgb(245,219,77)"/><rect x="49.5" y="175.5" width="9" height="9" fill="rgb(91,202,194)"/><rect x="49.5" y="184.5" width="9" height="9" fill="rgb(127,76,168)"/><rect x="49.5" y="193.5" width="9" height="9" fill="#ef3e44"/><rect x="90" y="144" width="72" height="72" fill="none" stroke="#202020"/><rect x="112.5" y="166.5" width="9" height="9" fill="#ef3e44"/><rect x="121.5" y="166.5" width="9" height="9" fill="rgb(253,188,66)"/><rect x="130.5" y="166.5" width="9" height="9" fill="rgb(85,181,215)"/><rect x="112.5" y="175.5" width="9" height="9" fill="#ef3e44"/><rect x="121.5" y="175.5" width="9" height="9" fill="rgb(209,218,93)"/><rect x="130.5" y="175.5" width="9" height="9" fill="rgb(100,210,158)"/><rect x="112.5" y="184.5" width="9" height="9" fill="rgb(212,52,133)"/><rect x="130.5" y="184.5" width="9" height="9" fill="rgb(99,85,179)"/><rect x="162" y="144" width="72" height="72" fill="none" stroke="#202020"/><rect x="175.5" y="175.5" width="9" height="9" fill="#ef3e44"/><rect x="184.5" y="175.5" width="9" height="9" fill="rgb(251,195,69)"/><rect x="193.5" y="175.5" width="9" height="9" fill="rgb(162,216,113)"/><rect x="202.5" y="175.5" width="9" height="9" fill="rgb(91,202,194)"/><rect x="211.5" y="175.5" width="9" height="9" fill="#ef3e44"/><rect x="184.5" y="184.5" width="9" height="9" fill="rgb(193,57,141)"/><rect x="202.5" y="184.5" width="9" height="9" fill="rgb(87,112,192)"/><rect x="234" y="144" width="72" height="72" fill="none" stroke="#202020"/><rect x="256.5" y="175.5" width="9" height="9" fill="#ef3e44"/><rect x="265.5" y="175.5" width="9" height="9" fill="rgb(249,204,72)"/><rect x="283.5" y="175.5" width="9" height="9" fill="#ef3e44"/><rect x="265.5" y="184.5" width="9" height="9" fill="rgb(104,213,143)"/><rect x="274.5" y="184.5" width="9" height="9" fill="rgb(86,161,208)"/><rect x="283.5" y="184.5" width="9" height="9" fill="rgb(167,65,151)"/><rect x="306" y="144" width="72" height="72" fill="none" stroke="#202020"/><rect x="346.5" y="166.5" width="9" height="9" fill="#ef3e44"/><rect x="337.5" y="175.5" width="9" height="9" fill="#ef3e44"/><rect x="328.5" y="184.5" width="9" height="9" fill="rgb(91,202,194)"/><rect x="337.5" y="184.5" width="9" height="9" fill="rgb(162,216,113)"/><rect x="346.5" y="184.5" width="9" height="9" fill="rgb(251,195,69)"/><rect x="328.5" y="193.5" width="9" height="9" fill="rgb(87,112,192)"/><rect x="346.5" y="193.5" width="9" height="9" fill="rgb(193,57,141)"/><rect x="378" y="144" width="72" height="72" fill="none" stroke="#202020"/><rect x="427.5" y="166.5" width="9" height="9" fill="#ef3e44"/><rect x="400.5" y="175.5" width="9" height="9" fill="rgb(86,161,208)"/><rect x="409.5" y="175.5" width="9" height="9" fill="rgb(104,213,143)"/><rect x="418.5" y="175.5" width="9" height="9" fill="rgb(249,204,72)"/><rect x="400.5" y="184.5" width="9" height="9" fill="rgb(167,65,151)"/><rect x="418.5" y="184.5" width="9" height="9" fill="#ef3e44"/><rect x="450" y="144" width="72" height="72" fill="none" stroke="#202020"/><rect x="481.5" y="166.5" width="9" height="9" fill="#ef3e44"/><rect x="472.5" y="184.5" width="9" height="9" fill="rgb(91,202,194)"/><rect x="481.5" y="184.5" width="9" height="9" fill="rgb(245,219,77)"/><rect x="490.5" y="184.5" width="9" height="9" fill="rgb(127,76,168)"/><rect x="481.5" y="193.5" width="9" height="9" fill="#ef3e44"/><rect x="522" y="144" width="72" height="72" fill="none" stroke="#202020"/><rect x="544.5" y="166.5" width="9" height="9" fill="#ef3e44"/><rect x="553.5" y="166.5" width="9" height="9" fill="rgb(251,195,69)"/><rect x="562.5" y="166.5" width="9" height="9" fill="#ef3e44"/><rect x="553.5" y="175.5" width="9" height="9" fill="rgb(162,216,113)"/><rect x="544.5" y="184.5" width="9" height="9" fill="rgb(87,112,192)"/><rect x="553.5" y="184.5" width="9" height="9" fill="rgb(91,202,194)"/><rect x="562.5" y="184.5" width="9" height="9" fill="rgb(193,57,141)"/><rect x="18" y="216" width="72" height="72" fill="none" stroke="#202020"/><rect x="40.5" y="238.5" width="9" height="9" fill="#ef3e44"/><rect x="49.5" y="238.5" width="9" height="9" fill="#ef3e44"/><rect x="58.5" y="238.5" width="9" height="9" fill="rgb(193,57,141)"/><rect x="40.5" y="247.5" width="9" height="9" fill="rgb(251,195,69)"/><rect x="58.5" y="247.5" width="9" height="9" fill="rgb(87,112,192)"/><rect x="40.5" y="256.5" width="9" height="9" fill="rgb(162,216,113)"/><rect x="58.5" y="256.5" width="9" height="9" fill="rgb(91,202,194)"/><rect x="90" y="216" width="72" height="72" fill="none" stroke="#202020"/><rect x="103.5" y="238.5" width="9" height="9" fill="#ef3e44"/><rect x="112.5" y="238.5" width="9" height="9" fill="rgb(252,158,64)"/><rect x="121.5" y="238.5" width="9" height="9" fill="rgb(181,61,146)"/><rect x="130.5" y="238.5" width="9" height="9" fill="rgb(223,55,110)"/><rect x="103.5" y="247.5" width="9" height="9" fill="rgb(109,82,175)"/><rect x="112.5" y="247.5" width="9" height="9" fill="rgb(250,199,70)"/><rect x="121.5" y="247.5" width="9" height="9" fill="rgb(222,218,87)"/><rect x="130.5" y="247.5" width="9" height="9" fill="rgb(131,215,127)"/><rect x="139.5" y="247.5" width="9" height="9" fill="#ef3e44"/><rect x="112.5" y="256.5" width="9" height="9" fill="rgb(87,134,199)"/><rect x="121.5" y="256.5" width="9" height="9" fill="rgb(86,197,218)"/><rect x="130.5" y="256.5" width="9" height="9" fill="rgb(97,207,171)"/><rect x="162" y="216" width="72" height="72" fill="none" stroke="#202020"/><rect x="202.5" y="238.5" width="9" height="9" fill="#ef3e44"/><rect x="175.5" y="256.5" width="9" height="9" fill="rgb(87,112,192)"/><rect x="184.5" y="256.5" width="9" height="9" fill="rgb(91,202,194)"/><rect x="193.5" y="256.5" width="9" height="9" fill="rgb(162,216,113)"/><rect x="202.5" y="256.5" width="9" height="9" fill="rgb(251,195,69)"/><rect x="211.5" y="256.5" width="9" height="9" fill="#ef3e44"/><rect x="184.5" y="265.5" width="9" height="9" fill="rgb(193,57,141)"/><rect x="234" y="216" width="72" height="72" fill="none" stroke="#202020"/><rect x="256.5" y="238.5" width="9" height="9" fill="#ef3e44"/><rect x="265.5" y="238.5" width="9" height="9" fill="rgb(251,195,69)"/><rect x="274.5" y="238.5" width="9" height="9" fill="rgb(87,112,192)"/><rect x="256.5" y="247.5" width="9" height="9" fill="#ef3e44"/><rect x="265.5" y="247.5" width="9" height="9" fill="rgb(162,216,113)"/><rect x="274.5" y="247.5" width="9" height="9" fill="rgb(91,202,194)"/><rect x="265.5" y="256.5" width="9" height="9" fill="rgb(193,57,141)"/><rect x="306" y="216" width="72" height="72" fill="none" stroke="#202020"/><rect x="328.5" y="238.5" width="9" height="9" fill="#ef3e44"/><rect x="337.5" y="238.5" width="9" height="9" fill="rgb(249,204,72)"/><rect x="346.5" y="238.5" width="9" height="9" fill="rgb(104,213,143)"/><rect x="328.5" y="256.5" width="9" height="9" fill="#ef3e44"/><rect x="337.5" y="256.5" width="9" height="9" fill="rgb(167,65,151)"/><rect x="346.5" y="256.5" width="9" height="9" fill="rgb(86,161,208)"/><rect x="378" y="216" width="72" height="72" fill="none" stroke="#202020"/><rect x="400.5" y="238.5" width="9" height="9" fill="#ef3e44"/><rect x="400.5" y="256.5" width="9" height="9" fill="rgb(245,219,77)"/><rect x="409.5" y="256.5" width="9" height="9" fill="rgb(91,202,194)"/><rect x="418.5" y="256.5" width="9" height="9" fill="rgb(127,76,168)"/><rect x="400.5" y="265.5" width="9" height="9" fill="#ef3e44"/><rect x="450" y="216" width="72" height="72" fill="none" stroke="#202020"/><rect x="499.5" y="238.5" width="9" height="9" fill="#ef3e44"/><rect x="463.5" y="247.5" width="9" height="9" fill="rgb(181,61,146)"/><rect x="472.5" y="247.5" width="9" height="9" fill="rgb(109,82,175)"/><rect x="481.5" y="247.5" width="9" height="9" fill="rgb(97,207,171)"/><rect x="490.5" y="247.5" width="9" height="9" fill="rgb(131,215,127)"/><rect x="499.5" y="247.5" width="9" height="9" fill="rgb(252,158,64)"/><rect x="463.5" y="256.5" width="9" height="9" fill="rgb(223,55,110)"/><rect x="472.5" y="256.5" width="9" height="9" fill="rgb(87,134,199)"/><rect x="481.5" y="256.5" width="9" height="9" fill="rgb(86,197,218)"/><rect x="490.5" y="256.5" width="9" height="9" fill="rgb(222,218,87)"/><rect x="499.5" y="256.5" width="9" height="9" fill="rgb(250,199,70)"/><rect x="463.5" y="265.5" width="9" height="9" fill="#ef3e44"/><rect x="522" y="216" width="72" height="72" fill="none" stroke="#202020"/><rect x="571.5" y="238.5" width="9" height="9" fill="#ef3e44"/><rect x="553.5" y="247.5" width="9" height="9" fill="rgb(249,204,72)"/><rect x="553.5" y="256.5" width="9" height="9" fill="rgb(104,213,143)"/><rect x="544.5" y="265.5" width="9" height="9" fill="rgb(167,65,151)"/><rect x="553.5" y="265.5" width="9" height="9" fill="rgb(86,161,208)"/><rect x="562.5" y="265.5" width="9" height="9" fill="#ef3e44"/><rect x="18" y="288" width="72" height="72" fill="none" stroke="#202020"/><rect x="49.5" y="310.5" width="9" height="9" fill="#ef3e44"/><rect x="58.5" y="310.5" width="9" height="9" fill="#ef3e44"/><rect x="49.5" y="319.5" width="9" height="9" fill="rgb(245,219,77)"/><rect x="40.5" y="328.5" width="9" height="9" fill="rgb(127,76,168)"/><rect x="49.5" y="328.5" width="9" height="9" fill="rgb(91,202,194)"/><rect x="90" y="288" width="72" height="72" fill="none" stroke="#202020"/><rect x="112.5" y="310.5" width="9" height="9" fill="#ef3e44"/><rect x="121.5" y="310.5" width="9" height="9" fill="rgb(149,70,159)"/><rect x="130.5" y="310.5" width="9" height="9" fill="rgb(87,112,192)"/><rect x="112.5" y="319.5" width="9" height="9" fill="rgb(255,178,63)"/><rect x="130.5" y="319.5" width="9" height="9" fill="rgb(85,193,219)"/><rect x="112.5" y="328.5" width="9" height="9" fill="rgb(247,211,74)"/><rect x="121.5" y="328.5" width="9" height="9" fill="rgb(162,216,113)"/><rect x="130.5" y="328.5" width="9" height="9" fill="rgb(98,208,166)"/><rect x="112.5" y="337.5" width="9" height="9" fill="#ef3e44"/><rect x="130.5" y="337.5" width="9" height="9" fill="rgb(219,53,119)"/><rect x="162" y="288" width="72" height="72" fill="none" stroke="#202020"/><rect x="175.5" y="310.5" width="9" height="9" fill="#ef3e44"/><rect x="184.5" y="310.5" width="9" height="9" fill="rgb(249,204,72)"/><rect x="193.5" y="310.5" width="9" height="9" fill="rgb(104,213,143)"/><rect x="202.5" y="310.5" width="9" height="9" fill="rgb(86,161,208)"/><rect x="211.5" y="310.5" width="9" height="9" fill="rgb(167,65,151)"/><rect x="193.5" y="328.5" width="9" height="9" fill="#ef3e44"/><rect x="234" y="288" width="72" height="72" fill="none" stroke="#202020"/><rect x="256.5" y="310.5" width="9" height="9" fill="#ef3e44"/><rect x="274.5" y="310.5" width="9" height="9" fill="#ef3e44"/><rect x="256.5" y="319.5" width="9" height="9" fill="rgb(249,204,72)"/><rect x="274.5" y="319.5" width="9" height="9" fill="rgb(167,65,151)"/><rect x="256.5" y="328.5" width="9" height="9" fill="rgb(104,213,143)"/><rect x="274.5" y="328.5" width="9" height="9" fill="rgb(86,161,208)"/><rect x="306" y="288" width="72" height="72" fill="none" stroke="#202020"/><rect x="328.5" y="310.5" width="9" height="9" fill="#ef3e44"/><rect x="346.5" y="310.5" width="9" height="9" fill="rgb(212,52,133)"/><rect x="328.5" y="319.5" width="9" height="9" fill="rgb(253,188,66)"/><rect x="346.5" y="319.5" width="9" height="9" fill="rgb(99,85,179)"/><rect x="328.5" y="328.5" width="9" height="9" fill="rgb(209,218,93)"/><rect x="337.5" y="328.5" width="9" height="9" fill="rgb(100,210,158)"/><rect x="346.5" y="328.5" width="9" height="9" fill="rgb(85,181,215)"/><rect x="337.5" y="337.5" width="9" height="9" fill="#ef3e44"/><rect x="378" y="288" width="72" height="72" fill="none" stroke="#202020"/><rect x="391.5" y="319.5" width="9" height="9" fill="#ef3e44"/><rect x="391.5" y="328.5" width="9" height="9" fill="rgb(162,216,113)"/><rect x="418.5" y="328.5" width="9" height="9" fill="rgb(87,112,192)"/><rect x="427.5" y="328.5" width="9" height="9" fill="#ef3e44"/><rect x="450" y="288" width="72" height="72" fill="none" stroke="#202020"/><rect x="490.5" y="310.5" width="9" height="9" fill="#ef3e44"/><rect x="472.5" y="328.5" width="9" height="9" fill="rgb(193,57,141)"/><rect x="481.5" y="328.5" width="9" height="9" fill="rgb(162,216,113)"/><rect x="490.5" y="328.5" width="9" height="9" fill="rgb(251,195,69)"/><rect x="472.5" y="337.5" width="9" height="9" fill="rgb(87,112,192)"/><rect x="481.5" y="337.5" width="9" height="9" fill="rgb(91,202,194)"/><rect x="490.5" y="337.5" width="9" height="9" fill="#ef3e44"/><rect x="522" y="288" width="72" height="72" fill="none" stroke="#202020"/><rect x="562.5" y="310.5" width="9" height="9" fill="#ef3e44"/><rect x="544.5" y="319.5" width="9" height="9" fill="rgb(86,161,208)"/><rect x="553.5" y="319.5" width="9" height="9" fill="rgb(104,213,143)"/><rect x="562.5" y="319.5" width="9" height="9" fill="rgb(249,204,72)"/><rect x="544.5" y="328.5" width="9" height="9" fill="rgb(167,65,151)"/><rect x="553.5" y="337.5" width="9" height="9" fill="#ef3e44"/><rect x="18" y="360" width="72" height="72" fill="none" stroke="#202020"/><rect x="40.5" y="382.5" width="9" height="9" fill="#ef3e44"/><rect x="49.5" y="382.5" width="9" height="9" fill="rgb(255,178,63)"/><rect x="58.5" y="382.5" width="9" height="9" fill="rgb(247,211,74)"/><rect x="40.5" y="391.5" width="9" height="9" fill="rgb(85,193,219)"/><rect x="49.5" y="391.5" width="9" height="9" fill="rgb(98,208,166)"/><rect x="58.5" y="391.5" width="9" height="9" fill="rgb(162,216,113)"/><rect x="40.5" y="400.5" width="9" height="9" fill="rgb(87,112,192)"/><rect x="49.5" y="400.5" width="9" height="9" fill="rgb(149,70,159)"/><rect x="58.5" y="400.5" width="9" height="9" fill="rgb(219,53,119)"/><rect x="67.5" y="400.5" width="9" height="9" fill="#ef3e44"/><rect x="90" y="360" width="72" height="72" fill="none" stroke="#202020"/><rect x="112.5" y="391.5" width="9" height="9" fill="#ef3e44"/><rect x="121.5" y="391.5" width="9" height="9" fill="rgb(91,202,194)"/><rect x="130.5" y="391.5" width="9" height="9" fill="rgb(87,112,192)"/><rect x="112.5" y="400.5" width="9" height="9" fill="rgb(251,195,69)"/><rect x="121.5" y="400.5" width="9" height="9" fill="rgb(162,216,113)"/><rect x="130.5" y="400.5" width="9" height="9" fill="rgb(193,57,141)"/><rect x="139.5" y="400.5" width="9" height="9" fill="#ef3e44"/><rect x="162" y="360" width="72" height="72" fill="none" stroke="#202020"/><rect x="184.5" y="382.5" width="9" height="9" fill="#ef3e44"/><rect x="193.5" y="382.5" width="9" height="9" fill="rgb(253,188,66)"/><rect x="202.5" y="382.5" width="9" height="9" fill="rgb(209,218,93)"/><rect x="184.5" y="391.5" width="9" height="9" fill="#ef3e44"/><rect x="202.5" y="391.5" width="9" height="9" fill="rgb(100,210,158)"/><rect x="184.5" y="400.5" width="9" height="9" fill="rgb(212,52,133)"/><rect x="202.5" y="400.5" width="9" height="9" fill="rgb(85,181,215)"/><rect x="211.5" y="400.5" width="9" height="9" fill="rgb(99,85,179)"/><rect x="234" y="360" width="72" height="72" fill="none" stroke="#202020"/><rect x="265.5" y="382.5" width="9" height="9" fill="#ef3e44"/><rect x="265.5" y="391.5" width="9" height="9" fill="rgb(253,188,66)"/><rect x="247.5" y="400.5" width="9" height="9" fill="rgb(212,52,133)"/><rect x="256.5" y="400.5" width="9" height="9" fill="rgb(99,85,179)"/><rect x="265.5" y="400.5" width="9" height="9" fill="rgb(209,218,93)"/><rect x="274.5" y="400.5" width="9" height="9" fill="rgb(100,210,158)"/><rect x="283.5" y="400.5" width="9" height="9" fill="rgb(85,181,215)"/><rect x="265.5" y="409.5" width="9" height="9" fill="#ef3e44"/><rect x="306" y="360" width="72" height="72" fill="none" stroke="#202020"/><rect x="346.5" y="382.5" width="9" height="9" fill="#ef3e44"/><rect x="328.5" y="391.5" width="9" height="9" fill="rgb(162,216,113)"/><rect x="328.5" y="400.5" width="9" height="9" fill="rgb(87,112,192)"/><rect x="328.5" y="409.5" width="9" height="9" fill="#ef3e44"/><rect x="378" y="360" width="72" height="72" fill="none" stroke="#202020"/><rect x="409.5" y="382.5" width="9" height="9" fill="#ef3e44"/><rect x="400.5" y="400.5" width="9" height="9" fill="rgb(87,112,192)"/><rect x="409.5" y="400.5" width="9" height="9" fill="rgb(251,195,69)"/><rect x="418.5" y="400.5" width="9" height="9" fill="rgb(193,57,141)"/><rect x="400.5" y="409.5" width="9" height="9" fill="rgb(91,202,194)"/><rect x="409.5" y="409.5" width="9" height="9" fill="rgb(162,216,113)"/><rect x="418.5" y="409.5" width="9" height="9" fill="#ef3e44"/><rect x="450" y="360" width="72" height="72" fill="none" stroke="#202020"/><rect x="472.5" y="382.5" width="9" height="9" fill="#ef3e44"/><rect x="481.5" y="382.5" width="9" height="9" fill="rgb(87,112,192)"/><rect x="463.5" y="391.5" width="9" height="9" fill="rgb(193,57,141)"/><rect x="472.5" y="391.5" width="9" height="9" fill="rgb(251,195,69)"/><rect x="481.5" y="391.5" width="9" height="9" fill="rgb(162,216,113)"/><rect x="499.5" y="391.5" width="9" height="9" fill="#ef3e44"/><rect x="481.5" y="400.5" width="9" height="9" fill="rgb(91,202,194)"/><rect x="522" y="360" width="72" height="72" fill="none" stroke="#202020"/><rect x="544.5" y="382.5" width="9" height="9" fill="#ef3e44"/><rect x="562.5" y="382.5" width="9" height="9" fill="rgb(193,57,141)"/><rect x="544.5" y="391.5" width="9" height="9" fill="rgb(251,195,69)"/><rect x="562.5" y="391.5" width="9" height="9" fill="rgb(87,112,192)"/><rect x="553.5" y="400.5" width="9" height="9" fill="rgb(162,216,113)"/><rect x="562.5" y="400.5" width="9" height="9" fill="rgb(91,202,194)"/><rect x="553.5" y="409.5" width="9" height="9" fill="#ef3e44"/><rect x="18" y="432" width="72" height="72" fill="none" stroke="#202020"/><rect x="40.5" y="454.5" width="9" height="9" fill="#ef3e44"/><rect x="49.5" y="454.5" width="9" height="9" fill="rgb(85,193,219)"/><rect x="58.5" y="454.5" width="9" height="9" fill="rgb(98,208,166)"/><rect x="31.5" y="463.5" width="9" height="9" fill="#ef3e44"/><rect x="40.5" y="463.5" width="9" height="9" fill="rgb(255,178,63)"/><rect x="49.5" y="463.5" width="9" height="9" fill="rgb(247,211,74)"/><rect x="58.5" y="463.5" width="9" height="9" fill="rgb(162,216,113)"/><rect x="67.5" y="463.5" width="9" height="9" fill="rgb(87,112,192)"/><rect x="40.5" y="472.5" width="9" height="9" fill="rgb(219,53,119)"/><rect x="58.5" y="472.5" width="9" height="9" fill="rgb(149,70,159)"/><rect x="90" y="432" width="72" height="72" fill="none" stroke="#202020"/><rect x="130.5" y="445.5" width="9" height="9" fill="#ef3e44"/><rect x="121.5" y="454.5" width="9" height="9" fill="#ef3e44"/><rect x="130.5" y="454.5" width="9" height="9" fill="rgb(249,204,72)"/><rect x="130.5" y="463.5" width="9" height="9" fill="rgb(104,213,143)"/><rect x="130.5" y="472.5" width="9" height="9" fill="rgb(86,161,208)"/><rect x="130.5" y="481.5" width="9" height="9" fill="rgb(167,65,151)"/><rect x="162" y="432" width="72" height="72" fill="none" stroke="#202020"/><rect x="193.5" y="454.5" width="9" height="9" fill="#ef3e44"/><rect x="184.5" y="463.5" width="9" height="9" fill="rgb(212,52,133)"/><rect x="202.5" y="463.5" width="9" height="9" fill="#ef3e44"/><rect x="184.5" y="472.5" width="9" height="9" fill="rgb(99,85,179)"/><rect x="193.5" y="472.5" width="9" height="9" fill="rgb(253,188,66)"/><rect x="202.5" y="472.5" width="9" height="9" fill="rgb(209,218,93)"/><rect x="184.5" y="481.5" width="9" height="9" fill="rgb(85,181,215)"/><rect x="202.5" y="481.5" width="9" height="9" fill="rgb(100,210,158)"/><rect x="234" y="432" width="72" height="72" fill="none" stroke="#202020"/><rect x="247.5" y="463.5" width="9" height="9" fill="#ef3e44"/><rect x="256.5" y="463.5" width="9" height="9" fill="rgb(249,204,72)"/><rect x="265.5" y="463.5" width="9" height="9" fill="rgb(104,213,143)"/><rect x="274.5" y="463.5" width="9" height="9" fill="rgb(86,161,208)"/><rect x="247.5" y="472.5" width="9" height="9" fill="#ef3e44"/><rect x="283.5" y="472.5" width="9" height="9" fill="rgb(167,65,151)"/><rect x="306" y="432" width="72" height="72" fill="none" stroke="#202020"/><rect x="328.5" y="463.5" width="9" height="9" fill="#ef3e44"/><rect x="337.5" y="463.5" width="9" height="9" fill="rgb(251,195,69)"/><rect x="346.5" y="463.5" width="9" height="9" fill="#ef3e44"/><rect x="355.5" y="463.5" width="9" height="9" fill="rgb(193,57,141)"/><rect x="337.5" y="472.5" width="9" height="9" fill="rgb(162,216,113)"/><rect x="346.5" y="472.5" width="9" height="9" fill="rgb(91,202,194)"/><rect x="355.5" y="472.5" width="9" height="9" fill="rgb(87,112,192)"/><rect x="378" y="432" width="72" height="72" fill="none" stroke="#202020"/><rect x="400.5" y="454.5" width="9" height="9" fill="#ef3e44"/><rect x="409.5" y="454.5" width="9" height="9" fill="rgb(255,178,63)"/><rect x="418.5" y="454.5" width="9" height="9" fill="rgb(247,211,74)"/><rect x="400.5" y="463.5" width="9" height="9" fill="rgb(219,53,119)"/><rect x="418.5" y="463.5" width="9" height="9" fill="rgb(162,216,113)"/><rect x="391.5" y="472.5" width="9" height="9" fill="rgb(149,70,159)"/><rect x="400.5" y="472.5" width="9" height="9" fill="rgb(87,112,192)"/><rect x="409.5" y="472.5" width="9" height="9" fill="rgb(85,193,219)"/><rect x="418.5" y="472.5" width="9" height="9" fill="rgb(98,208,166)"/><rect x="427.5" y="472.5" width="9" height="9" fill="#ef3e44"/><rect x="450" y="432" width="72" height="72" fill="none" stroke="#202020"/><rect x="490.5" y="454.5" width="9" height="9" fill="#ef3e44"/><rect x="472.5" y="463.5" width="9" height="9" fill="rgb(86,161,208)"/><rect x="481.5" y="463.5" width="9" height="9" fill="rgb(104,213,143)"/><rect x="490.5" y="463.5" width="9" height="9" fill="rgb(249,204,72)"/><rect x="499.5" y="463.5" width="9" height="9" fill="rgb(167,65,151)"/><rect x="490.5" y="472.5" width="9" height="9" fill="#ef3e44"/><rect x="522" y="432" width="72" height="72" fill="none" stroke="#202020"/><rect x="544.5" y="454.5" width="9" height="9" fill="#ef3e44"/><rect x="553.5" y="454.5" width="9" height="9" fill="rgb(149,70,159)"/><rect x="562.5" y="454.5" width="9" height="9" fill="rgb(87,112,192)"/><rect x="535.5" y="463.5" width="9" height="9" fill="rgb(219,53,119)"/><rect x="544.5" y="463.5" width="9" height="9" fill="rgb(255,178,63)"/><rect x="562.5" y="463.5" width="9" height="9" fill="rgb(85,193,219)"/><rect x="571.5" y="463.5" width="9" height="9" fill="#ef3e44"/><rect x="544.5" y="472.5" width="9" height="9" fill="rgb(247,211,74)"/><rect x="553.5" y="472.5" width="9" height="9" fill="rgb(162,216,113)"/><rect x="562.5" y="472.5" width="9" height="9" fill="rgb(98,208,166)"/><rect x="18" y="504" width="72" height="72" fill="none" stroke="#202020"/><rect x="31.5" y="526.5" width="9" height="9" fill="#ef3e44"/><rect x="40.5" y="526.5" width="9" height="9" fill="rgb(252,158,64)"/><rect x="49.5" y="526.5" width="9" height="9" fill="rgb(250,199,70)"/><rect x="58.5" y="526.5" width="9" height="9" fill="rgb(222,218,87)"/><rect x="67.5" y="526.5" width="9" height="9" fill="#ef3e44"/><rect x="49.5" y="535.5" width="9" height="9" fill="rgb(181,61,146)"/><rect x="58.5" y="535.5" width="9" height="9" fill="rgb(131,215,127)"/><rect x="31.5" y="544.5" width="9" height="9" fill="rgb(109,82,175)"/><rect x="40.5" y="544.5" width="9" height="9" fill="rgb(87,134,199)"/><rect x="49.5" y="544.5" width="9" height="9" fill="rgb(86,197,218)"/><rect x="58.5" y="544.5" width="9" height="9" fill="rgb(97,207,171)"/><rect x="67.5" y="544.5" width="9" height="9" fill="rgb(223,55,110)"/><rect x="90" y="504" width="72" height="72" fill="none" stroke="#202020"/><rect x="112.5" y="526.5" width="9" height="9" fill="#ef3e44"/><rect x="121.5" y="526.5" width="9" height="9" fill="rgb(212,52,133)"/><rect x="103.5" y="535.5" width="9" height="9" fill="#ef3e44"/><rect x="112.5" y="535.5" width="9" height="9" fill="rgb(253,188,66)"/><rect x="130.5" y="535.5" width="9" height="9" fill="rgb(85,181,215)"/><rect x="139.5" y="535.5" width="9" height="9" fill="rgb(99,85,179)"/><rect x="112.5" y="544.5" width="9" height="9" fill="rgb(209,218,93)"/><rect x="121.5" y="544.5" width="9" height="9" fill="rgb(100,210,158)"/><rect x="162" y="504" width="72" height="72" fill="none" stroke="#202020"/><rect x="184.5" y="526.5" width="9" height="9" fill="#ef3e44"/><rect x="193.5" y="526.5" width="9" height="9" fill="rgb(245,219,77)"/><rect x="202.5" y="526.5" width="9" height="9" fill="rgb(91,202,194)"/><rect x="184.5" y="535.5" width="9" height="9" fill="rgb(127,76,168)"/><rect x="193.5" y="544.5" width="9" height="9" fill="#ef3e44"/><rect x="234" y="504" width="72" height="72" fill="none" stroke="#202020"/><rect x="256.5" y="526.5" width="9" height="9" fill="#ef3e44"/><rect x="265.5" y="526.5" width="9" height="9" fill="#ef3e44"/><rect x="247.5" y="535.5" width="9" height="9" fill="rgb(217,52,125)"/><rect x="256.5" y="535.5" width="9" height="9" fill="rgb(254,182,65)"/><rect x="265.5" y="535.5" width="9" height="9" fill="rgb(245,219,77)"/><rect x="274.5" y="535.5" width="9" height="9" fill="rgb(120,215,131)"/><rect x="283.5" y="535.5" width="9" height="9" fill="rgb(91,202,194)"/><rect x="256.5" y="544.5" width="9" height="9" fill="rgb(127,76,168)"/><rect x="265.5" y="544.5" width="9" height="9" fill="rgb(87,143,202)"/><rect x="306" y="504" width="72" height="72" fill="none" stroke="#202020"/><rect x="328.5" y="526.5" width="9" height="9" fill="#ef3e44"/><rect x="337.5" y="526.5" width="9" height="9" fill="rgb(249,204,72)"/><rect x="346.5" y="526.5" width="9" height="9" fill="rgb(104,213,143)"/><rect x="328.5" y="535.5" width="9" height="9" fill="#ef3e44"/><rect x="346.5" y="535.5" width="9" height="9" fill="rgb(86,161,208)"/><rect x="337.5" y="544.5" width="9" height="9" fill="rgb(167,65,151)"/><rect x="378" y="504" width="72" height="72" fill="none" stroke="#202020"/><rect x="409.5" y="517.5" width="9" height="9" fill="#ef3e44"/><rect x="418.5" y="517.5" width="9" height="9" fill="#ef3e44"/><rect x="409.5" y="526.5" width="9" height="9" fill="rgb(254,182,65)"/><rect x="418.5" y="526.5" width="9" height="9" fill="rgb(245,219,77)"/><rect x="418.5" y="535.5" width="9" height="9" fill="rgb(120,215,131)"/><rect x="409.5" y="544.5" width="9" height="9" fill="rgb(217,52,125)"/><rect x="418.5" y="544.5" width="9" height="9" fill="rgb(91,202,194)"/><rect x="409.5" y="553.5" width="9" height="9" fill="rgb(127,76,168)"/><rect x="418.5" y="553.5" width="9" height="9" fill="rgb(87,143,202)"/><rect x="450" y="504" width="72" height="72" fill="none" stroke="#202020"/><rect x="472.5" y="526.5" width="9" height="9" fill="#ef3e44"/><rect x="481.5" y="526.5" width="9" height="9" fill="rgb(254,182,65)"/><rect x="490.5" y="526.5" width="9" height="9" fill="rgb(245,219,77)"/><rect x="499.5" y="526.5" width="9" height="9" fill="rgb(120,215,131)"/><rect x="481.5" y="535.5" width="9" height="9" fill="#ef3e44"/><rect x="499.5" y="535.5" width="9" height="9" fill="rgb(91,202,194)"/><rect x="481.5" y="544.5" width="9" height="9" fill="rgb(217,52,125)"/><rect x="490.5" y="544.5" width="9" height="9" fill="rgb(127,76,168)"/><rect x="499.5" y="544.5" width="9" height="9" fill="rgb(87,143,202)"/><rect x="522" y="504" width="72" height="72" fill="none" stroke="#202020"/><rect x="544.5" y="535.5" width="9" height="9" fill="#ef3e44"/><rect x="562.5" y="535.5" width="9" height="9" fill="#ef3e44"/><rect x="544.5" y="544.5" width="9" height="9" fill="rgb(245,219,77)"/><rect x="553.5" y="544.5" width="9" height="9" fill="rgb(91,202,194)"/><rect x="562.5" y="544.5" width="9" height="9" fill="rgb(127,76,168)"/><rect x="18" y="576" width="72" height="72" fill="none" stroke="#202020"/><rect x="49.5" y="589.5" width="9" height="9" fill="#ef3e44"/><rect x="40.5" y="598.5" width="9" height="9" fill="rgb(85,181,215)"/><rect x="49.5" y="598.5" width="9" height="9" fill="rgb(253,188,66)"/><rect x="40.5" y="607.5" width="9" height="9" fill="rgb(100,210,158)"/><rect x="49.5" y="607.5" width="9" height="9" fill="rgb(209,218,93)"/><rect x="58.5" y="607.5" width="9" height="9" fill="#ef3e44"/><rect x="49.5" y="616.5" width="9" height="9" fill="rgb(99,85,179)"/><rect x="49.5" y="625.5" width="9" height="9" fill="rgb(212,52,133)"/><rect x="90" y="576" width="72" height="72" fill="none" stroke="#202020"/><rect x="112.5" y="598.5" width="9" height="9" fill="#ef3e44"/><rect x="121.5" y="598.5" width="9" height="9" fill="rgb(249,204,72)"/><rect x="139.5" y="598.5" width="9" height="9" fill="#ef3e44"/><rect x="121.5" y="607.5" width="9" height="9" fill="rgb(104,213,143)"/><rect x="121.5" y="616.5" width="9" height="9" fill="rgb(86,161,208)"/><rect x="130.5" y="616.5" width="9" height="9" fill="rgb(167,65,151)"/><rect x="162" y="576" width="72" height="72" fill="none" stroke="#202020"/><rect x="175.5" y="598.5" width="9" height="9" fill="#ef3e44"/><rect x="184.5" y="598.5" width="9" height="9" fill="rgb(245,219,77)"/><rect x="211.5" y="598.5" width="9" height="9" fill="rgb(91,202,194)"/><rect x="211.5" y="607.5" width="9" height="9" fill="rgb(127,76,168)"/><rect x="211.5" y="616.5" width="9" height="9" fill="#ef3e44"/><rect x="234" y="576" width="72" height="72" fill="none" stroke="#202020"/><rect x="247.5" y="598.5" width="9" height="9" fill="#ef3e44"/><rect x="256.5" y="598.5" width="9" height="9" fill="rgb(254,182,65)"/><rect x="265.5" y="598.5" width="9" height="9" fill="rgb(245,219,77)"/><rect x="274.5" y="598.5" width="9" height="9" fill="rgb(120,215,131)"/><rect x="283.5" y="598.5" width="9" height="9" fill="rgb(91,202,194)"/><rect x="247.5" y="607.5" width="9" height="9" fill="#ef3e44"/><rect x="283.5" y="607.5" width="9" height="9" fill="rgb(87,143,202)"/><rect x="256.5" y="616.5" width="9" height="9" fill="rgb(217,52,125)"/><rect x="265.5" y="616.5" width="9" height="9" fill="rgb(127,76,168)"/><rect x="306" y="576" width="72" height="72" fill="none" stroke="#202020"/><rect x="328.5" y="598.5" width="9" height="9" fill="#ef3e44"/><rect x="337.5" y="598.5" width="9" height="9" fill="rgb(249,204,72)"/><rect x="346.5" y="598.5" width="9" height="9" fill="rgb(104,213,143)"/><rect x="328.5" y="607.5" width="9" height="9" fill="#ef3e44"/><rect x="346.5" y="607.5" width="9" height="9" fill="rgb(86,161,208)"/><rect x="355.5" y="616.5" width="9" height="9" fill="rgb(167,65,151)"/><rect x="378" y="576" width="72" height="72" fill="none" stroke="#202020"/><rect x="427.5" y="598.5" width="9" height="9" fill="#ef3e44"/><rect x="400.5" y="607.5" width="9" height="9" fill="rgb(193,57,141)"/><rect x="409.5" y="607.5" width="9" height="9" fill="rgb(162,216,113)"/><rect x="418.5" y="607.5" width="9" height="9" fill="rgb(251,195,69)"/><rect x="400.5" y="616.5" width="9" height="9" fill="rgb(87,112,192)"/><rect x="409.5" y="616.5" width="9" height="9" fill="rgb(91,202,194)"/><rect x="418.5" y="616.5" width="9" height="9" fill="#ef3e44"/><rect x="450" y="576" width="72" height="72" fill="none" stroke="#202020"/><rect x="472.5" y="598.5" width="9" height="9" fill="#ef3e44"/><rect x="481.5" y="598.5" width="9" height="9" fill="rgb(253,188,66)"/><rect x="490.5" y="598.5" width="9" height="9" fill="rgb(212,52,133)"/><rect x="472.5" y="607.5" width="9" height="9" fill="rgb(99,85,179)"/><rect x="481.5" y="607.5" width="9" height="9" fill="rgb(209,218,93)"/><rect x="472.5" y="616.5" width="9" height="9" fill="rgb(85,181,215)"/><rect x="481.5" y="616.5" width="9" height="9" fill="rgb(100,210,158)"/><rect x="490.5" y="616.5" width="9" height="9" fill="#ef3e44"/><rect x="522" y="576" width="72" height="72" fill="none" stroke="#202020"/><rect x="553.5" y="598.5" width="9" height="9" fill="#ef3e44"/><rect x="544.5" y="607.5" width="9" height="9" fill="rgb(162,216,113)"/><rect x="553.5" y="607.5" width="9" height="9" fill="rgb(251,195,69)"/><rect x="562.5" y="607.5" width="9" height="9" fill="#ef3e44"/><rect x="544.5" y="616.5" width="9" height="9" fill="rgb(91,202,194)"/><rect x="553.5" y="616.5" width="9" height="9" fill="rgb(87,112,192)"/><rect x="562.5" y="616.5" width="9" height="9" fill="rgb(193,57,141)"/><rect x="18" y="648" width="72" height="72" fill="none" stroke="#202020"/><rect x="40.5" y="670.5" width="9" height="9" fill="#ef3e44"/><rect x="58.5" y="670.5" width="9" height="9" fill="rgb(87,112,192)"/><rect x="40.5" y="679.5" width="9" height="9" fill="rgb(251,195,69)"/><rect x="49.5" y="679.5" width="9" height="9" fill="rgb(162,216,113)"/><rect x="58.5" y="679.5" width="9" height="9" fill="rgb(91,202,194)"/><rect x="40.5" y="688.5" width="9" height="9" fill="#ef3e44"/><rect x="58.5" y="688.5" width="9" height="9" fill="rgb(193,57,141)"/><rect x="90" y="648" width="72" height="72" fill="none" stroke="#202020"/><rect x="139.5" y="670.5" width="9" height="9" fill="#ef3e44"/><rect x="112.5" y="688.5" width="9" height="9" fill="rgb(86,161,208)"/><rect x="121.5" y="688.5" width="9" height="9" fill="rgb(104,213,143)"/><rect x="130.5" y="688.5" width="9" height="9" fill="rgb(249,204,72)"/><rect x="112.5" y="697.5" width="9" height="9" fill="rgb(167,65,151)"/><rect x="130.5" y="697.5" width="9" height="9" fill="#ef3e44"/><rect x="162" y="648" width="72" height="72" fill="none" stroke="#202020"/><rect x="202.5" y="670.5" width="9" height="9" fill="#ef3e44"/><rect x="211.5" y="670.5" width="9" height="9" fill="#ef3e44"/><rect x="184.5" y="679.5" width="9" height="9" fill="rgb(91,202,194)"/><rect x="193.5" y="679.5" width="9" height="9" fill="rgb(104,213,143)"/><rect x="202.5" y="679.5" width="9" height="9" fill="rgb(254,167,63)"/><rect x="193.5" y="688.5" width="9" height="9" fill="rgb(195,217,99)"/><rect x="202.5" y="688.5" width="9" height="9" fill="rgb(249,204,72)"/><rect x="211.5" y="688.5" width="9" height="9" fill="rgb(221,54,114)"/><rect x="193.5" y="697.5" width="9" height="9" fill="rgb(86,161,208)"/><rect x="202.5" y="697.5" width="9" height="9" fill="rgb(88,88,184)"/><rect x="211.5" y="697.5" width="9" height="9" fill="rgb(167,65,151)"/><rect x="234" y="648" width="72" height="72" fill="none" stroke="#202020"/><rect x="256.5" y="670.5" width="9" height="9" fill="#ef3e44"/><rect x="265.5" y="670.5" width="9" height="9" fill="#ef3e44"/><rect x="256.5" y="679.5" width="9" height="9" fill="rgb(251,195,69)"/><rect x="265.5" y="679.5" width="9" height="9" fill="rgb(162,216,113)"/><rect x="274.5" y="679.5" width="9" height="9" fill="rgb(193,57,141)"/><rect x="265.5" y="688.5" width="9" height="9" fill="rgb(91,202,194)"/><rect x="274.5" y="688.5" width="9" height="9" fill="rgb(87,112,192)"/><rect x="306" y="648" width="72" height="72" fill="none" stroke="#202020"/><rect x="328.5" y="670.5" width="9" height="9" fill="#ef3e44"/><rect x="337.5" y="670.5" width="9" height="9" fill="rgb(253,188,66)"/><rect x="346.5" y="670.5" width="9" height="9" fill="#ef3e44"/><rect x="337.5" y="679.5" width="9" height="9" fill="rgb(209,218,93)"/><rect x="346.5" y="679.5" width="9" height="9" fill="rgb(100,210,158)"/><rect x="328.5" y="688.5" width="9" height="9" fill="rgb(212,52,133)"/><rect x="337.5" y="688.5" width="9" height="9" fill="rgb(99,85,179)"/><rect x="346.5" y="688.5" width="9" height="9" fill="rgb(85,181,215)"/><rect x="378" y="648" width="72" height="72" fill="none" stroke="#202020"/><rect x="400.5" y="670.5" width="9" height="9" fill="#ef3e44"/><rect x="409.5" y="670.5" width="9" height="9" fill="rgb(149,70,159)"/><rect x="418.5" y="670.5" width="9" height="9" fill="rgb(98,208,166)"/><rect x="427.5" y="670.5" width="9" height="9" fill="rgb(85,193,219)"/><rect x="391.5" y="679.5" width="9" height="9" fill="rgb(219,53,119)"/><rect x="400.5" y="679.5" width="9" height="9" fill="rgb(255,178,63)"/><rect x="409.5" y="679.5" width="9" height="9" fill="rgb(247,211,74)"/><rect x="418.5" y="679.5" width="9" height="9" fill="rgb(162,216,113)"/><rect x="427.5" y="679.5" width="9" height="9" fill="rgb(87,112,192)"/><rect x="400.5" y="688.5" width="9" height="9" fill="#ef3e44"/><rect x="450" y="648" width="72" height="72" fill="none" stroke="#202020"/><rect x="472.5" y="670.5" width="9" height="9" fill="#ef3e44"/><rect x="481.5" y="670.5" width="9" height="9" fill="rgb(251,195,69)"/><rect x="490.5" y="670.5" width="9" height="9" fill="rgb(162,216,113)"/><rect x="481.5" y="679.5" width="9" height="9" fill="rgb(87,112,192)"/><rect x="490.5" y="679.5" width="9" height="9" fill="rgb(91,202,194)"/><rect x="472.5" y="688.5" width="9" height="9" fill="#ef3e44"/><rect x="481.5" y="688.5" width="9" height="9" fill="rgb(193,57,141)"/><rect x="522" y="648" width="72" height="72" fill="none" stroke="#202020"/><rect x="553.5" y="670.5" width="9" height="9" fill="#ef3e44"/><rect x="535.5" y="688.5" width="9" height="9" fill="rgb(221,54,114)"/><rect x="544.5" y="688.5" width="9" height="9" fill="rgb(167,65,151)"/><rect x="553.5" y="688.5" width="9" height="9" fill="rgb(254,167,63)"/><rect x="562.5" y="688.5" width="9" height="9" fill="rgb(104,213,143)"/><rect x="571.5" y="688.5" width="9" height="9" fill="rgb(91,202,194)"/><rect x="535.5" y="697.5" width="9" height="9" fill="#ef3e44"/><rect x="544.5" y="697.5" width="9" height="9" fill="rgb(88,88,184)"/><rect x="553.5" y="697.5" width="9" height="9" fill="rgb(249,204,72)"/><rect x="562.5" y="697.5" width="9" height="9" fill="rgb(195,217,99)"/><rect x="571.5" y="697.5" width="9" height="9" fill="rgb(86,161,208)"/><rect x="18" y="720" width="72" height="72" fill="none" stroke="#202020"/><rect x="40.5" y="751.5" width="9" height="9" fill="#ef3e44"/><rect x="49.5" y="751.5" width="9" height="9" fill="rgb(245,219,77)"/><rect x="67.5" y="751.5" width="9" height="9" fill="#ef3e44"/><rect x="49.5" y="760.5" width="9" height="9" fill="rgb(91,202,194)"/><rect x="67.5" y="760.5" width="9" height="9" fill="rgb(127,76,168)"/><rect x="90" y="720" width="72" height="72" fill="none" stroke="#202020"/><rect x="121.5" y="742.5" width="9" height="9" fill="#ef3e44"/><rect x="130.5" y="742.5" width="9" height="9" fill="rgb(254,182,65)"/><rect x="139.5" y="742.5" width="9" height="9" fill="rgb(245,219,77)"/><rect x="112.5" y="751.5" width="9" height="9" fill="#ef3e44"/><rect x="121.5" y="751.5" width="9" height="9" fill="rgb(217,52,125)"/><rect x="139.5" y="751.5" width="9" height="9" fill="rgb(120,215,131)"/><rect x="121.5" y="760.5" width="9" height="9" fill="rgb(127,76,168)"/><rect x="130.5" y="760.5" width="9" height="9" fill="rgb(87,143,202)"/><rect x="139.5" y="760.5" width="9" height="9" fill="rgb(91,202,194)"/><rect x="162" y="720" width="72" height="72" fill="none" stroke="#202020"/><rect x="193.5" y="733.5" width="9" height="9" fill="#ef3e44"/><rect x="193.5" y="751.5" width="9" height="9" fill="rgb(253,188,66)"/><rect x="184.5" y="760.5" width="9" height="9" fill="rgb(99,85,179)"/><rect x="193.5" y="760.5" width="9" height="9" fill="rgb(209,218,93)"/><rect x="202.5" y="760.5" width="9" height="9" fill="rgb(212,52,133)"/><rect x="184.5" y="769.5" width="9" height="9" fill="rgb(85,181,215)"/><rect x="193.5" y="769.5" width="9" height="9" fill="rgb(100,210,158)"/><rect x="202.5" y="769.5" width="9" height="9" fill="#ef3e44"/><rect x="234" y="720" width="72" height="72" fill="none" stroke="#202020"/><rect x="265.5" y="733.5" width="9" height="9" fill="#ef3e44"/><rect x="256.5" y="751.5" width="9" height="9" fill="#ef3e44"/><rect x="265.5" y="751.5" width="9" height="9" fill="rgb(249,204,72)"/><rect x="274.5" y="751.5" width="9" height="9" fill="rgb(167,65,151)"/><rect x="265.5" y="760.5" width="9" height="9" fill="rgb(104,213,143)"/><rect x="265.5" y="769.5" width="9" height="9" fill="rgb(86,161,208)"/><rect x="306" y="720" width="72" height="72" fill="none" stroke="#202020"/><rect x="328.5" y="742.5" width="9" height="9" fill="#ef3e44"/><rect x="328.5" y="751.5" width="9" height="9" fill="rgb(251,195,69)"/><rect x="337.5" y="751.5" width="9" height="9" fill="rgb(87,112,192)"/><rect x="346.5" y="751.5" width="9" height="9" fill="rgb(193,57,141)"/><rect x="328.5" y="760.5" width="9" height="9" fill="rgb(162,216,113)"/><rect x="337.5" y="760.5" width="9" height="9" fill="rgb(91,202,194)"/><rect x="346.5" y="760.5" width="9" height="9" fill="#ef3e44"/><rect x="378" y="720" width="72" height="72" fill="none" stroke="#202020"/><rect x="400.5" y="751.5" width="9" height="9" fill="#ef3e44"/><rect x="409.5" y="751.5" width="9" height="9" fill="rgb(162,216,113)"/><rect x="418.5" y="751.5" width="9" height="9" fill="rgb(87,112,192)"/><rect x="427.5" y="760.5" width="9" height="9" fill="#ef3e44"/><rect x="450" y="720" width="72" height="72" fill="none" stroke="#202020"/><rect x="472.5" y="742.5" width="9" height="9" fill="#ef3e44"/><rect x="481.5" y="742.5" width="9" height="9" fill="rgb(249,204,72)"/><rect x="490.5" y="742.5" width="9" height="9" fill="#ef3e44"/><rect x="481.5" y="751.5" width="9" height="9" fill="rgb(104,213,143)"/><rect x="472.5" y="760.5" width="9" height="9" fill="rgb(167,65,151)"/><rect x="481.5" y="760.5" width="9" height="9" fill="rgb(86,161,208)"/><rect x="522" y="720" width="72" height="72" fill="none" stroke="#202020"/><rect x="544.5" y="742.5" width="9" height="9" fill="#ef3e44"/><rect x="553.5" y="742.5" width="9" height="9" fill="rgb(253,188,66)"/><rect x="562.5" y="742.5" width="9" height="9" fill="#ef3e44"/><rect x="553.5" y="751.5" width="9" height="9" fill="rgb(209,218,93)"/><rect x="544.5" y="760.5" width="9" height="9" fill="rgb(85,181,215)"/><rect x="553.5" y="760.5" width="9" height="9" fill="rgb(100,210,158)"/><rect x="562.5" y="760.5" width="9" height="9" fill="rgb(212,52,133)"/><rect x="544.5" y="769.5" width="9" height="9" fill="rgb(99,85,179)"/></svg>
