<?xml version="1.0" encoding="UTF-8"?>
<svg xmlns="http://www.w3.org/2000/svg" width="680" height="680" viewBox="0 0 680 680" shape-rendering="crispEdges">
  <rect width="680" height="680" fill="#000000"/>
  <rect x="188" y="152" width="304" height="376" fill="#111111"/>
  <g stroke="#191919" stroke-width="1" fill="none">
    <line x1="204" y1="168" x2="476" y2="168"/>
    <line x1="204" y1="204" x2="476" y2="204"/>
    <line x1="204" y1="240" x2="476" y2="240"/>
    <line x1="204" y1="276" x2="476" y2="276"/>
    <line x1="204" y1="312" x2="476" y2="312"/>
    <line x1="204" y1="348" x2="476" y2="348"/>
    <line x1="204" y1="384" x2="476" y2="384"/>
    <line x1="204" y1="420" x2="476" y2="420"/>
    <line x1="204" y1="456" x2="476" y2="456"/>
    <line x1="204" y1="492" x2="476" y2="492"/>
    <line x1="204" y1="528" x2="476" y2="528"/>
    <line x1="204" y1="168" x2="204" y2="528"/>
    <line x1="238" y1="168" x2="238" y2="528"/>
    <line x1="272" y1="168" x2="272" y2="528"/>
    <line x1="306" y1="168" x2="306" y2="528"/>
    <line x1="340" y1="168" x2="340" y2="528"/>
    <line x1="374" y1="168" x2="374" y2="528"/>
    <line x1="408" y1="168" x2="408" y2="528"/>
    <line x1="442" y1="168" x2="442" y2="528"/>
    <line x1="476" y1="168" x2="476" y2="528"/>
  </g>
</svg>
